<svg width="132" height="35" viewBox="0 0 132 35" fill="none" xmlns="http://www.w3.org/2000/svg">
<g id="Group 13671">
<rect id="Rectangle 23727" x="0.5" y="0.5" width="131" height="34" rx="4.5" fill="#F9F9F9" stroke="#CCCED3"/>
<g id="Group 13670">
<g id="Group 13666">
<path id="Vector" d="M80.1414 11.3164C77.1854 11.3164 75.109 12.8923 75.0907 15.1456C75.072 16.8149 76.5756 17.7457 77.7065 18.3005C78.8733 18.8676 79.263 19.2321 79.2592 19.7395C79.2476 20.5173 78.3256 20.8716 77.4688 20.8716C76.2743 20.8716 75.6375 20.6967 74.6587 20.2651L74.2706 20.0801L73.8525 22.6771C74.5514 23.0003 75.8419 23.2803 77.1836 23.295C80.3204 23.295 82.3614 21.7372 82.3857 19.3319C82.398 18.008 81.5999 17.0059 79.8742 16.1786C78.8324 15.6407 78.1883 15.284 78.1979 14.739C78.1987 14.2574 78.7384 13.7413 79.91 13.7413C80.8885 13.7248 81.5923 13.95 82.1463 14.1872L82.4128 14.3206L82.8194 11.8048C82.2289 11.5709 81.2971 11.3165 80.1413 11.3165L80.1414 11.3164ZM70.8618 11.5188L68.9922 23.1234H71.9793L73.85 11.5187H70.8622L70.8618 11.5188ZM66.4856 11.5301L63.5605 19.439L63.2487 17.8319C62.5203 15.8613 60.9434 13.7942 59.1069 12.9565L61.7826 23.1123L64.9457 23.1108L69.6494 11.5302L66.4856 11.5301ZM88.175 11.5308C87.4592 11.5308 86.9229 11.7354 86.607 12.494L82.1712 23.1272H85.3096C85.3096 23.1272 85.8227 21.6959 85.9388 21.3826C86.2813 21.3826 89.3295 21.3892 89.7644 21.3892C89.8568 21.7938 90.1282 23.1271 90.1282 23.1271H92.9032L90.4835 11.5308L88.175 11.5308ZM88.3861 14.6594L88.5852 15.6598C88.5852 15.6598 89.1594 18.4287 89.2792 19.0086H86.7986C87.0468 18.3427 87.989 15.7649 87.989 15.7649C87.9706 15.7964 88.2341 15.0937 88.3861 14.6594Z" fill="#0023A0"/>
<path id="Vector_2" d="M60.8475 11.5235H56.0281L56 11.7232C59.747 12.6841 62.2191 15.0439 63.2484 17.8344L62.2011 12.5009C62.021 11.7674 61.4966 11.5494 60.8475 11.5235Z" fill="#FFAB00"/>
</g>
<g id="Group 13667">
<path id="Vector_3" d="M19.6268 23.2806L19.7075 22.9073C19.6066 22.9048 19.5032 22.877 19.3998 22.8266C19.2963 22.7711 19.2081 22.703 19.1349 22.6147C19.0592 22.5314 19.0189 22.4381 19.0113 22.3372L18.2621 12.842C18.2495 12.673 18.199 12.5292 18.1158 12.4131C18.035 12.2996 17.9266 12.2088 17.7954 12.1508C17.6617 12.0902 17.5204 12.0625 17.3665 12.0625H12.5206L12.4222 12.4358C12.5004 12.4358 12.5761 12.4636 12.6492 12.5115C12.7224 12.5595 12.7854 12.62 12.8334 12.6957C12.8813 12.7688 12.9065 12.8445 12.909 12.9227C12.909 12.9782 12.9065 13.0261 12.899 13.064C12.8914 13.0993 12.8762 13.1346 12.8611 13.1674L8.08325 22.433C8.05802 22.4835 8.04036 22.5365 8.0227 22.592C8.01009 22.65 8 22.6979 8 22.7408C8.00252 22.8972 8.06307 23.0259 8.18415 23.1268C8.30272 23.2251 8.46921 23.2756 8.68363 23.2781H12.2128L12.2935 22.9048C12.2178 22.9048 12.1447 22.8896 12.0741 22.8568C12.0059 22.8241 11.9504 22.7812 11.905 22.7257C11.8622 22.6702 11.8394 22.6121 11.8369 22.5466C11.8369 22.5264 11.8369 22.4986 11.842 22.4532C11.8445 22.4103 11.8521 22.37 11.8697 22.3347L12.5357 21.0002H14.4226L14.5689 22.6576C14.5916 22.8896 14.6698 23.0511 14.8061 23.1419C14.9423 23.2352 15.1491 23.2781 15.4317 23.2756H19.6268V23.2806ZM14.294 17.0043L14.4251 18.8257H13.4993L14.294 17.0043Z" fill="#463483" stroke="white" stroke-miterlimit="2.6131" stroke-linecap="round" stroke-linejoin="round"/>
<path id="Vector_4" d="M25.3127 17.7504C25.3505 17.5789 25.4363 17.4503 25.5775 17.362C25.7163 17.2737 25.9257 17.2283 26.2057 17.2283H26.9044C27.2576 17.2308 27.5528 17.1652 27.7924 17.0365C28.0295 16.9054 28.2011 16.6985 28.302 16.416L28.7737 14.4004H27.3585C27.1491 14.4004 26.9726 14.4307 26.8338 14.4887C26.69 14.5492 26.5689 14.635 26.463 14.7435C26.3596 14.8545 26.2587 14.9882 26.1653 15.1395C26.0695 15.2934 25.966 15.4649 25.8475 15.6516H25.6532C25.686 15.5381 25.7112 15.4321 25.7264 15.3363C25.7415 15.2429 25.7516 15.1622 25.7516 15.0992C25.7541 14.91 25.6911 14.7636 25.5675 14.6577C25.4388 14.5517 25.237 14.4988 24.9545 14.4988H21.3446L21.2638 14.8721C21.332 14.8721 21.4001 14.8948 21.4707 14.9352C21.5388 14.973 21.5968 15.031 21.6448 15.1042C21.6927 15.1774 21.7179 15.2631 21.7204 15.3615C21.7204 15.4069 21.7204 15.4574 21.7179 15.5028C21.7129 15.5457 21.7053 15.5986 21.6876 15.6541L20.0933 22.498C20.0782 22.5712 20.0656 22.6393 20.058 22.6973C20.0505 22.7579 20.0454 22.8058 20.0454 22.8386C20.0479 22.9622 20.0959 23.0656 20.1892 23.1514C20.2851 23.2321 20.4087 23.275 20.5651 23.2801H24.629L24.7274 22.9067C24.6543 22.9067 24.5836 22.8815 24.5155 22.8336C24.4449 22.7881 24.3869 22.7251 24.3415 22.6494C24.296 22.5737 24.2733 22.493 24.2708 22.4022C24.2708 22.3543 24.2708 22.3063 24.2733 22.266C24.2733 22.2231 24.2784 22.1827 24.286 22.1423L25.3127 17.7504Z" fill="#463483" stroke="white" stroke-miterlimit="2.6131" stroke-linecap="round" stroke-linejoin="round"/>
<path id="Vector_5" d="M33.3069 20.5971C32.9663 20.5946 32.7317 20.5114 32.6056 20.3423C32.4769 20.1708 32.4542 19.9337 32.5274 19.6209L33.4204 15.7663C33.4607 15.5418 33.5238 15.3501 33.6096 15.1836C33.6953 15.0171 33.8215 14.8909 33.9829 14.7976C34.1469 14.7043 34.3638 14.6589 34.6388 14.6589H36.3138C36.5888 14.6589 36.7982 14.6185 36.9546 14.5403C37.1085 14.4621 37.222 14.3511 37.3027 14.2098C37.3809 14.066 37.4414 13.8945 37.4869 13.7003C37.5247 13.5539 37.5676 13.3824 37.618 13.1831C37.6634 12.9864 37.7063 12.7845 37.7517 12.5853C37.7921 12.386 37.8249 12.2094 37.8476 12.0605H32.3205C31.9572 12.0605 31.599 12.1236 31.2534 12.2447C30.9053 12.3683 30.5824 12.5626 30.2772 12.8173C29.977 13.0721 29.7121 13.3975 29.4825 13.7911C29.2555 14.1846 29.0789 14.6462 28.9553 15.1836L28.0623 19.1012C27.9463 19.5881 27.8681 20.0472 27.8252 20.4735C27.7823 20.8999 27.7974 21.2833 27.8681 21.6289C27.9387 21.972 28.085 22.2646 28.3045 22.5118C28.5239 22.759 28.8367 22.9482 29.2429 23.0819C29.649 23.2156 30.1637 23.2787 30.7918 23.2812H34.4496C34.8482 23.2812 35.1585 23.2383 35.3905 23.15C35.6201 23.0668 35.7916 22.9432 35.9052 22.7868C36.0187 22.6304 36.0969 22.4387 36.1398 22.2242L36.6115 20.1759H36.2382C36.2079 20.2616 36.1499 20.3373 36.0565 20.4004C35.9657 20.4634 35.8623 20.5114 35.7412 20.5467C35.6252 20.5795 35.5142 20.5971 35.4082 20.5971H33.3069Z" fill="#463483" stroke="white" stroke-miterlimit="2.6131" stroke-linecap="round" stroke-linejoin="round"/>
<path id="Vector_6" d="M41.3341 20.0296C41.377 19.8202 41.435 19.6613 41.5057 19.5528C41.5738 19.4444 41.652 19.3712 41.7378 19.3334C41.8261 19.298 41.9194 19.2779 42.0178 19.2829C42.1136 19.2829 42.1918 19.2829 42.2473 19.2829C42.3053 19.2829 42.3533 19.2829 42.3911 19.2829L42.0506 20.7637C42.0253 20.8873 41.9749 20.9882 41.8992 21.0664C41.8235 21.1421 41.7251 21.1825 41.6116 21.185H41.4981C41.3846 21.185 41.3039 21.1623 41.2509 21.1143C41.1979 21.0689 41.1727 20.9882 41.1727 20.8772C41.1727 20.8419 41.1752 20.8015 41.1828 20.7486C41.1878 20.7006 41.1954 20.6477 41.2055 20.5997L41.3341 20.0296ZM45.5293 14.5H39.9845L39.644 15.8824C39.6288 15.9303 39.6162 15.9858 39.6087 16.0439C39.6011 16.1019 39.596 16.1548 39.596 16.2053C39.5935 16.3995 39.6465 16.5433 39.7651 16.6367C39.8786 16.73 40.0703 16.7754 40.3453 16.7754H42.5072C42.661 16.7729 42.7695 16.8107 42.8326 16.8839C42.8956 16.9596 42.9057 17.0882 42.8654 17.2623C42.8326 17.3985 42.767 17.4969 42.6762 17.56C42.5828 17.623 42.4668 17.6508 42.3306 17.6508H40.1838C39.6969 17.6457 39.2656 17.734 38.8922 17.9182C38.5189 18.1023 38.1985 18.4025 37.9336 18.8238C37.6688 19.2451 37.4543 19.8051 37.2904 20.5114C37.2677 20.6376 37.2475 20.7713 37.2222 20.9125C37.1995 21.0513 37.1819 21.185 37.1693 21.3136C37.1541 21.4448 37.144 21.5558 37.144 21.6491C37.1466 22.1083 37.2172 22.4614 37.3559 22.7137C37.4947 22.9685 37.6889 23.1451 37.9412 23.246C38.1935 23.3469 38.4911 23.3923 38.8342 23.3898H39.5002C39.8231 23.3898 40.093 23.3746 40.3099 23.3343C40.5294 23.2964 40.7136 23.2334 40.8649 23.1451C41.0163 23.0568 41.1525 22.9357 41.2736 22.7843C41.3922 22.633 41.5183 22.4463 41.6444 22.2167H41.8387L41.7907 22.4286C41.7554 22.5775 41.7554 22.7162 41.7857 22.8423C41.8185 22.971 41.8942 23.0719 42.0127 23.1501C42.1313 23.2283 42.3079 23.2687 42.5374 23.2712H46.2129L46.2936 22.8978C46.2255 22.8978 46.1524 22.8903 46.0767 22.8701C45.9985 22.8474 45.9329 22.8121 45.8774 22.7566C45.8219 22.7011 45.7941 22.6254 45.7916 22.5245C45.7916 22.4614 45.7967 22.4085 45.8042 22.3605C45.8118 22.3101 45.8244 22.247 45.8396 22.1688L47.0908 16.7704C47.1059 16.7023 47.1211 16.6215 47.1337 16.5282C47.1438 16.4374 47.1564 16.344 47.1614 16.2507C47.169 16.1574 47.1715 16.0817 47.1715 16.0211C47.169 15.6907 47.0958 15.4107 46.9546 15.1836C46.8133 14.9566 46.6216 14.7851 46.3744 14.669C46.1271 14.5605 45.8471 14.5 45.5293 14.5Z" fill="#463483" stroke="white" stroke-miterlimit="2.6131" stroke-linecap="round" stroke-linejoin="round"/>
</g>
<g id="Group 13665">
<g id="g13">
<g id="g15">
<path id="XMLID_1775_" d="M104.899 25.5801V24.4773C104.899 24.0546 104.641 23.7789 104.2 23.7789C103.979 23.7789 103.74 23.8524 103.575 24.0913C103.446 23.8891 103.262 23.7789 102.986 23.7789C102.802 23.7789 102.618 23.834 102.471 24.0362V23.8156H102.085V25.5801H102.471V24.606C102.471 24.2935 102.637 24.1465 102.894 24.1465C103.152 24.1465 103.28 24.3119 103.28 24.606V25.5801H103.667V24.606C103.667 24.2935 103.85 24.1465 104.09 24.1465C104.347 24.1465 104.476 24.3119 104.476 24.606V25.5801H104.899ZM110.618 23.8156H109.993V23.2826H109.607V23.8156H109.257V24.1648H109.607V24.9735C109.607 25.3779 109.772 25.6168 110.214 25.6168C110.379 25.6168 110.563 25.5617 110.692 25.4882L110.581 25.1573C110.471 25.2309 110.342 25.2492 110.25 25.2492C110.067 25.2492 109.993 25.139 109.993 24.9552V24.1648H110.618V23.8156ZM113.892 23.7789C113.671 23.7789 113.524 23.8891 113.432 24.0362V23.8156H113.046V25.5801H113.432V24.5876C113.432 24.2935 113.561 24.1281 113.8 24.1281C113.873 24.1281 113.965 24.1465 114.039 24.1648L114.149 23.7972C114.076 23.7789 113.965 23.7789 113.892 23.7789ZM108.945 23.9627C108.761 23.834 108.503 23.7789 108.227 23.7789C107.786 23.7789 107.492 23.9994 107.492 24.3486C107.492 24.6427 107.712 24.8081 108.099 24.8633L108.283 24.8816C108.485 24.9184 108.595 24.9735 108.595 25.0654C108.595 25.1941 108.448 25.286 108.191 25.286C107.933 25.286 107.731 25.1941 107.602 25.1022L107.418 25.3963C107.621 25.5433 107.896 25.6168 108.172 25.6168C108.687 25.6168 108.981 25.3779 108.981 25.0471C108.981 24.7346 108.742 24.5692 108.375 24.5141L108.191 24.4957C108.025 24.4773 107.896 24.4405 107.896 24.3303C107.896 24.2016 108.025 24.1281 108.227 24.1281C108.448 24.1281 108.669 24.22 108.779 24.2751L108.945 23.9627ZM119.207 23.7789C118.986 23.7789 118.839 23.8891 118.747 24.0362V23.8156H118.361V25.5801H118.747V24.5876C118.747 24.2935 118.876 24.1281 119.115 24.1281C119.188 24.1281 119.28 24.1465 119.354 24.1648L119.464 23.7972C119.391 23.7789 119.28 23.7789 119.207 23.7789ZM114.278 24.6979C114.278 25.2309 114.646 25.6168 115.216 25.6168C115.473 25.6168 115.657 25.5617 115.841 25.4147L115.657 25.1022C115.51 25.2125 115.363 25.2676 115.197 25.2676C114.885 25.2676 114.664 25.0471 114.664 24.6979C114.664 24.367 114.885 24.1465 115.197 24.1281C115.363 24.1281 115.51 24.1832 115.657 24.2935L115.841 23.981C115.657 23.834 115.473 23.7789 115.216 23.7789C114.646 23.7789 114.278 24.1648 114.278 24.6979ZM117.846 24.6979V23.8156H117.46V24.0362C117.331 23.8708 117.147 23.7789 116.908 23.7789C116.411 23.7789 116.025 24.1648 116.025 24.6979C116.025 25.2309 116.411 25.6168 116.908 25.6168C117.165 25.6168 117.349 25.5249 117.46 25.3595V25.5801H117.846V24.6979ZM116.43 24.6979C116.43 24.3854 116.632 24.1281 116.963 24.1281C117.276 24.1281 117.496 24.367 117.496 24.6979C117.496 25.0103 117.276 25.2676 116.963 25.2676C116.632 25.2492 116.43 25.0103 116.43 24.6979ZM111.814 23.7789C111.299 23.7789 110.931 24.1465 110.931 24.6979C110.931 25.2492 111.299 25.6168 111.832 25.6168C112.089 25.6168 112.347 25.5433 112.549 25.3779L112.365 25.1022C112.218 25.2125 112.034 25.286 111.85 25.286C111.611 25.286 111.372 25.1757 111.317 24.8633H112.623C112.623 24.8081 112.623 24.7714 112.623 24.7162C112.641 24.1465 112.31 23.7789 111.814 23.7789ZM111.814 24.1097C112.053 24.1097 112.218 24.2567 112.255 24.5324H111.335C111.372 24.2935 111.538 24.1097 111.814 24.1097ZM121.395 24.6979V23.1172H121.009V24.0362C120.88 23.8708 120.696 23.7789 120.457 23.7789C119.961 23.7789 119.574 24.1648 119.574 24.6979C119.574 25.2309 119.961 25.6168 120.457 25.6168C120.715 25.6168 120.899 25.5249 121.009 25.3595V25.5801H121.395V24.6979ZM119.979 24.6979C119.979 24.3854 120.181 24.1281 120.512 24.1281C120.825 24.1281 121.046 24.367 121.046 24.6979C121.046 25.0103 120.825 25.2676 120.512 25.2676C120.181 25.2492 119.979 25.0103 119.979 24.6979ZM107.069 24.6979V23.8156H106.683V24.0362C106.554 23.8708 106.37 23.7789 106.131 23.7789C105.634 23.7789 105.248 24.1648 105.248 24.6979C105.248 25.2309 105.634 25.6168 106.131 25.6168C106.388 25.6168 106.572 25.5249 106.683 25.3595V25.5801H107.069V24.6979ZM105.634 24.6979C105.634 24.3854 105.837 24.1281 106.168 24.1281C106.48 24.1281 106.701 24.367 106.701 24.6979C106.701 25.0103 106.48 25.2676 106.168 25.2676C105.837 25.2492 105.634 25.0103 105.634 24.6979Z" fill="black"/>
</g>
<g id="XMLID_328_">
<path id="rect19" d="M114.609 10.416H108.816V20.819H114.609V10.416Z" fill="#FF5F00"/>
<path id="XMLID_330_" d="M109.184 15.6167C109.184 13.5031 110.177 11.6283 111.703 10.4153C110.582 9.53302 109.165 9 107.621 9C103.961 9 101 11.9592 101 15.6167C101 19.2743 103.961 22.2335 107.621 22.2335C109.165 22.2335 110.582 21.7005 111.703 20.8183C110.177 19.6236 109.184 17.7304 109.184 15.6167Z" fill="#EB001B"/>
<path id="path22" d="M122.426 15.6167C122.426 19.2743 119.465 22.2335 115.805 22.2335C114.26 22.2335 112.844 21.7005 111.722 20.8183C113.267 19.6052 114.242 17.7304 114.242 15.6167C114.242 13.5031 113.249 11.6283 111.722 10.4153C112.844 9.53302 114.26 9 115.805 9C119.465 9 122.426 11.9775 122.426 15.6167Z" fill="#F79E1B"/>
</g>
</g>
</g>
</g>
</g>
</svg>
