<svg width="92" height="28" viewBox="0 0 92 28" fill="none" xmlns="http://www.w3.org/2000/svg">
<path d="M27.591 26.6622L27.7756 25.8083C27.5448 25.8025 27.3083 25.7391 27.0717 25.6237C26.8352 25.4968 26.6332 25.341 26.4659 25.1391C26.2928 24.9487 26.2005 24.7352 26.1832 24.5044L24.4697 2.78859C24.4409 2.40204 24.3255 2.07319 24.1351 1.8078C23.9505 1.54818 23.7024 1.34048 23.4024 1.20779C23.0966 1.06932 22.7735 1.00586 22.4216 1.00586H11.3387L11.1137 1.85972C11.2925 1.85972 11.4656 1.92319 11.6329 2.03281C11.8002 2.14242 11.9445 2.28089 12.0541 2.45397C12.1637 2.62128 12.2214 2.79436 12.2272 2.97321C12.2272 3.10013 12.2214 3.20975 12.2041 3.29629C12.1868 3.37706 12.1522 3.45784 12.1175 3.53284L1.19039 24.7237C1.13269 24.8391 1.09231 24.9602 1.05192 25.0871C1.02308 25.2198 1 25.3295 1 25.4275C1.00577 25.7852 1.14423 26.0795 1.42116 26.3102C1.69232 26.5352 2.0731 26.6506 2.56349 26.6564H10.6348L10.8194 25.8025C10.6464 25.8025 10.479 25.7679 10.3175 25.6929C10.1617 25.6179 10.0348 25.5198 9.93096 25.3929C9.83288 25.266 9.78096 25.1333 9.77519 24.9833C9.77519 24.9371 9.77519 24.8737 9.78673 24.7698C9.79249 24.6717 9.8098 24.5794 9.85019 24.4987L11.3733 21.4467H15.6888L16.0234 25.2371C16.0753 25.7679 16.2542 26.1372 16.5657 26.3449C16.8773 26.5583 17.3503 26.6564 17.9965 26.6506H27.591V26.6622ZM15.3945 12.308L15.6945 16.4735H13.5772L15.3945 12.308Z" fill="#463483" stroke="white" stroke-miterlimit="2.6131" stroke-linecap="round" stroke-linejoin="round"/>
<path d="M40.5933 14.0152C40.6798 13.6229 40.876 13.3287 41.1991 13.1267C41.5164 12.9248 41.9952 12.821 42.6356 12.821H44.2337C45.0415 12.8267 45.7165 12.6767 46.2646 12.3825C46.8069 12.0825 47.1992 11.6094 47.43 10.9632L48.5088 6.35352H45.2722C44.7934 6.35352 44.3895 6.42275 44.0722 6.55544C43.7434 6.69391 43.4664 6.89007 43.2241 7.13815C42.9876 7.392 42.7568 7.69778 42.5433 8.04394C42.3241 8.39587 42.0875 8.78818 41.8164 9.21511H41.3721C41.4471 8.95549 41.5048 8.71318 41.5395 8.49395C41.5741 8.28048 41.5971 8.09586 41.5971 7.95163C41.6029 7.51893 41.4587 7.1843 41.176 6.94199C40.8818 6.69968 40.4202 6.57852 39.774 6.57852H31.5181L31.3335 7.43238C31.4892 7.43238 31.645 7.48431 31.8066 7.57662C31.9623 7.66316 32.095 7.79585 32.2046 7.96317C32.3143 8.13048 32.372 8.32664 32.3777 8.55164C32.3777 8.65549 32.3777 8.77087 32.372 8.87472C32.3604 8.9728 32.3431 9.09396 32.3027 9.22089L28.6565 24.8731C28.6219 25.0405 28.593 25.1962 28.5757 25.3289C28.5584 25.4674 28.5469 25.577 28.5469 25.652C28.5526 25.9347 28.6623 26.1712 28.8757 26.3674C29.095 26.552 29.3777 26.6501 29.7354 26.6616H39.0298L39.2548 25.8078C39.0875 25.8078 38.9259 25.7501 38.7702 25.6405C38.6086 25.5366 38.4759 25.3924 38.3721 25.2193C38.2682 25.0462 38.2163 24.8616 38.2105 24.6539C38.2105 24.5443 38.2105 24.4347 38.2163 24.3424C38.2163 24.2443 38.2278 24.152 38.2452 24.0597L40.5933 14.0152Z" fill="#463483" stroke="white" stroke-miterlimit="2.6131" stroke-linecap="round" stroke-linejoin="round"/>
<path d="M58.8766 20.5235C58.0978 20.5177 57.5612 20.3273 57.2727 19.9408C56.9785 19.5485 56.9266 19.0062 57.0939 18.2908L59.1362 9.47518C59.2286 8.96171 59.3728 8.52324 59.5689 8.14246C59.7651 7.76168 60.0536 7.47321 60.4228 7.25975C60.7978 7.04628 61.294 6.94243 61.9228 6.94243H65.7537C66.3826 6.94243 66.8614 6.85012 67.2191 6.67127C67.571 6.49242 67.8307 6.23857 68.0153 5.91549C68.1941 5.58664 68.3326 5.19432 68.4364 4.75008C68.523 4.41546 68.6211 4.02314 68.7365 3.56736C68.8403 3.11735 68.9384 2.6558 69.0422 2.20002C69.1345 1.74425 69.2095 1.34039 69.2615 1H56.6208C55.79 1 54.9708 1.14423 54.1804 1.42116C53.3842 1.70386 52.6457 2.1481 51.9476 2.73081C51.2611 3.31351 50.6553 4.05776 50.1303 4.95778C49.611 5.8578 49.2072 6.91359 48.9245 8.14246L46.8821 17.1023C46.6168 18.2158 46.4379 19.2658 46.3398 20.2408C46.2417 21.2158 46.2764 22.0928 46.4379 22.8832C46.5994 23.6678 46.9341 24.337 47.436 24.9024C47.9379 25.4678 48.6533 25.9005 49.5822 26.2063C50.5111 26.5121 51.688 26.6563 53.1246 26.6621H61.4901C62.4017 26.6621 63.1113 26.564 63.6421 26.3621C64.1671 26.1717 64.5594 25.889 64.8191 25.5313C65.0787 25.1736 65.2575 24.7351 65.3556 24.2447L66.4345 19.56H65.5806C65.5114 19.7562 65.3787 19.9292 65.1652 20.0735C64.9575 20.2177 64.721 20.3273 64.4441 20.4081C64.1787 20.4831 63.9248 20.5235 63.6825 20.5235H58.8766Z" fill="#463483" stroke="white" stroke-miterlimit="2.6131" stroke-linecap="round" stroke-linejoin="round"/>
<path d="M77.2352 19.2255C77.3333 18.7467 77.466 18.3832 77.6276 18.1351C77.7833 17.887 77.9622 17.7197 78.1583 17.6332C78.3603 17.5524 78.5737 17.5063 78.7987 17.5178C79.018 17.5178 79.1968 17.5178 79.3237 17.5178C79.4564 17.5178 79.5661 17.5178 79.6526 17.5178L78.8737 20.9044C78.816 21.1871 78.7007 21.4179 78.5276 21.5967C78.3545 21.7698 78.1295 21.8621 77.8699 21.8679H77.6102C77.3506 21.8679 77.166 21.816 77.0449 21.7063C76.9237 21.6025 76.866 21.4179 76.866 21.164C76.866 21.0833 76.8718 20.9909 76.8891 20.8698C76.9006 20.7602 76.9179 20.639 76.941 20.5294L77.2352 19.2255ZM86.8297 6.5791H74.1486L73.3698 9.74071C73.3352 9.85032 73.3063 9.97725 73.289 10.1099C73.2717 10.2426 73.2602 10.3638 73.2602 10.4792C73.2544 10.9234 73.3755 11.2523 73.6467 11.4657C73.9063 11.6792 74.3448 11.7831 74.9737 11.7831H79.918C80.2699 11.7773 80.518 11.8638 80.6622 12.0311C80.8065 12.2042 80.8295 12.4985 80.7372 12.8965C80.6622 13.2081 80.5122 13.4331 80.3045 13.5773C80.0911 13.7216 79.8257 13.785 79.5141 13.785H74.6044C73.4909 13.7735 72.5044 13.9754 71.6505 14.3966C70.7966 14.8177 70.0639 15.5043 69.4582 16.4678C68.8524 17.4313 68.362 18.7121 67.987 20.3275C67.935 20.6159 67.8889 20.9217 67.8312 21.2448C67.7793 21.5621 67.7389 21.8679 67.71 22.1621C67.6754 22.4621 67.6523 22.716 67.6523 22.9294C67.6581 23.9795 67.8197 24.7872 68.137 25.3641C68.4543 25.9468 68.8985 26.3507 69.4755 26.5815C70.0524 26.8122 70.7332 26.9161 71.5178 26.9103H73.0409C73.7794 26.9103 74.3967 26.8757 74.8929 26.7834C75.3948 26.6968 75.816 26.5526 76.1621 26.3507C76.5083 26.1487 76.8198 25.8718 77.0968 25.5257C77.3679 25.1795 77.6564 24.7526 77.9449 24.2276H78.3891L78.2795 24.7122C78.1987 25.0526 78.1987 25.3699 78.268 25.6584C78.343 25.9526 78.516 26.1834 78.7872 26.3622C79.0584 26.5411 79.4622 26.6334 79.9872 26.6391H88.3932L88.5778 25.7853C88.422 25.7853 88.2547 25.768 88.0816 25.7218C87.9028 25.6699 87.7528 25.5891 87.6258 25.4622C87.4989 25.3353 87.4355 25.1622 87.4297 24.9314C87.4297 24.7872 87.4412 24.666 87.4585 24.5564C87.4758 24.441 87.5047 24.2968 87.5393 24.1179L90.4009 11.7715C90.4355 11.6157 90.4701 11.4311 90.499 11.2177C90.5221 11.01 90.5509 10.7965 90.5625 10.583C90.5798 10.3696 90.5855 10.1965 90.5855 10.058C90.5798 9.30224 90.4124 8.66184 90.0894 8.1426C89.7663 7.62336 89.3278 7.23104 88.7624 6.96565C88.197 6.71757 87.5566 6.5791 86.8297 6.5791Z" fill="#463483" stroke="white" stroke-miterlimit="2.6131" stroke-linecap="round" stroke-linejoin="round"/>
</svg>
