<svg width="23" height="18" viewBox="0 0 23 18" fill="none" xmlns="http://www.w3.org/2000/svg">
<g id="Layer 2">
<path id="Vector" d="M8.97366 17.5382C9.08904 17.5388 9.20342 17.5167 9.31024 17.4731C9.41706 17.4295 9.51421 17.3652 9.59613 17.2839C9.67831 17.2024 9.74353 17.1055 9.78804 16.9986C9.83255 16.8918 9.85547 16.7772 9.85547 16.6614C9.85547 16.5457 9.83255 16.4311 9.78804 16.3243C9.74353 16.2174 9.67831 16.1205 9.59613 16.039L2.31928 8.77088L9.59613 1.50279C9.76122 1.3377 9.85397 1.11379 9.85397 0.880317C9.85397 0.646842 9.76122 0.42293 9.59613 0.257839C9.43104 0.0927475 9.20713 0 8.97366 0C8.74018 0 8.51627 0.0927475 8.35118 0.257839L0.460612 8.14841C0.378438 8.22991 0.313213 8.32687 0.268703 8.43371C0.224192 8.54055 0.201277 8.65514 0.201277 8.77088C0.201277 8.88662 0.224192 9.00121 0.268703 9.10805C0.313213 9.21489 0.378438 9.31186 0.460612 9.39336L8.35118 17.2839C8.4331 17.3652 8.53025 17.4295 8.63707 17.4731C8.74389 17.5167 8.85827 17.5388 8.97366 17.5382Z" fill="black"/>
<path id="Vector_2" d="M1.08176 9.64799H22.1233C22.3558 9.64799 22.5788 9.55562 22.7432 9.3912C22.9076 9.22678 23 9.00378 23 8.77126C23 8.53874 22.9076 8.31574 22.7432 8.15132C22.5788 7.9869 22.3558 7.89453 22.1233 7.89453H1.08176C0.849237 7.89453 0.626238 7.9869 0.461819 8.15132C0.297401 8.31574 0.205032 8.53874 0.205032 8.77126C0.205032 9.00378 0.297401 9.22678 0.461819 9.3912C0.626238 9.55562 0.849237 9.64799 1.08176 9.64799Z" fill="black"/>
</g>
</svg>
