<svg width="12" height="10" viewBox="0 0 12 10" fill="none" xmlns="http://www.w3.org/2000/svg">
<g id="Layer 2">
<path id="Vector" d="M4.61792 0.7694C4.67865 0.769049 4.73885 0.780688 4.79507 0.803652C4.85129 0.826614 4.90242 0.86045 4.94554 0.903216C4.98879 0.946113 5.02312 0.997148 5.04654 1.05338C5.06997 1.10961 5.08203 1.16992 5.08203 1.23084C5.08203 1.29175 5.06997 1.35206 5.04654 1.40829C5.02312 1.46452 4.98879 1.51556 4.94554 1.55845L1.11562 5.38376L4.94554 9.20906C5.03243 9.29595 5.08124 9.4138 5.08124 9.53668C5.08124 9.65956 5.03243 9.77741 4.94554 9.8643C4.85865 9.95119 4.7408 10 4.61792 10C4.49504 10 4.37719 9.95119 4.2903 9.8643L0.13738 5.71138C0.0941306 5.66848 0.0598017 5.61744 0.0363751 5.56121C0.0129486 5.50498 0.000887949 5.44467 0.000887944 5.38376C0.000887939 5.32284 0.0129486 5.26253 0.0363751 5.2063C0.0598016 5.15007 0.0941306 5.09903 0.13738 5.05614L4.2903 0.903216C4.33342 0.86045 4.38455 0.826614 4.44077 0.803652C4.49699 0.780688 4.55719 0.769049 4.61792 0.7694Z" fill="#06364B"/>
<path id="Vector_2" d="M0.464109 4.92283L11.5386 4.92283C11.6609 4.92283 11.7783 4.97145 11.8648 5.05798C11.9514 5.14452 12 5.26189 12 5.38427C12 5.50665 11.9514 5.62402 11.8648 5.71055C11.7783 5.79709 11.6609 5.8457 11.5386 5.8457L0.464109 5.8457C0.341729 5.8457 0.224361 5.79709 0.137825 5.71055C0.0512886 5.62402 0.00267407 5.50665 0.00267406 5.38427C0.00267405 5.26189 0.0512885 5.14452 0.137825 5.05798C0.224361 4.97145 0.341729 4.92283 0.464109 4.92283Z" fill="#06364B"/>
</g>
</svg>
