<svg width="32" height="31" viewBox="0 0 32 31" fill="none" xmlns="http://www.w3.org/2000/svg">
<g id="Group 12854">
<rect id="Rectangle 42" x="1.15625" y="1.00391" width="29.6796" height="29.6796" rx="14.8398" stroke="black" stroke-width="0.5"/>
<g id="Group">
<path id="Vector" d="M19.8375 22.8866H12.2972C11.5874 22.8866 11.0101 22.3093 11.0101 21.5999L9.94203 16.5855C9.53848 16.3854 9.27344 15.9773 9.27344 15.5216C9.27344 14.8556 9.81515 14.3143 10.4807 14.3143H21.5081C22.1736 14.3143 22.7153 14.8556 22.7153 15.5216C22.7153 15.9113 22.5273 16.2681 22.2128 16.4927L21.1158 21.6814C21.1246 22.3093 20.5473 22.8866 19.8375 22.8866ZM10.4807 15.106C10.2518 15.106 10.0653 15.2926 10.0653 15.5215C10.0653 15.7019 10.1957 15.8617 10.3828 15.9092C10.5287 15.9463 10.6406 16.0638 10.6715 16.2112L11.7931 21.5185C11.8019 21.8731 12.0241 22.0947 12.2972 22.0947H19.8375C20.1106 22.0947 20.3329 21.8731 20.3329 21.5999L21.4737 16.1617C21.4985 16.0421 21.5773 15.9411 21.6861 15.8875C21.8325 15.8165 21.9237 15.6751 21.9237 15.5216C21.9237 15.2927 21.7372 15.1062 21.5082 15.1062L10.4807 15.106Z" fill="black"/>
<path id="Vector_2" d="M13.3138 20.5652C13.3138 20.7184 13.1885 20.8438 13.0353 20.8438H12.9585C12.8053 20.8438 12.68 20.7184 12.68 20.5652V17.3047C12.68 17.1515 12.8053 17.0262 12.9585 17.0262H13.0353C13.1885 17.0262 13.3138 17.1515 13.3138 17.3047V20.5652Z" fill="black"/>
<path id="Vector_3" d="M15.3533 20.5652C15.3533 20.7184 15.2279 20.8438 15.0747 20.8438H14.998C14.8448 20.8438 14.7194 20.7184 14.7194 20.5652V17.3047C14.7194 17.1515 14.8447 17.0262 14.998 17.0262H15.0747C15.2279 17.0262 15.3533 17.1515 15.3533 17.3047V20.5652Z" fill="black"/>
<path id="Vector_4" d="M17.3929 20.5652C17.3929 20.7184 17.2676 20.8438 17.1144 20.8438H17.0375C16.8843 20.8438 16.759 20.7184 16.759 20.5652V17.3047C16.759 17.1515 16.8843 17.0262 17.0375 17.0262H17.1144C17.2676 17.0262 17.3929 17.1515 17.3929 17.3047V20.5652Z" fill="black"/>
<path id="Vector_5" d="M19.4325 20.5652C19.4325 20.7184 19.3072 20.8438 19.154 20.8438H19.0771C18.9239 20.8438 18.7985 20.7184 18.7985 20.5652V17.3047C18.7985 17.1515 18.9239 17.0262 19.0771 17.0262H19.1538C19.307 17.0262 19.4324 17.1515 19.4324 17.3047L19.4325 20.5652Z" fill="black"/>
<path id="Vector_6" d="M12.2451 12.8991C12.5095 11.0583 14.0884 9.64215 16.0022 9.64215C17.9162 9.64215 19.4952 11.0584 19.7596 12.8991C19.7981 13.5277 20.6078 13.4271 20.6078 12.8991C20.3383 10.5932 18.3808 8.80273 16.0024 8.80273C13.624 8.80273 11.6664 10.5932 11.397 12.8991C11.3969 13.5529 12.2555 13.5781 12.2451 12.8991Z" fill="black"/>
</g>
</g>
</svg>
