<svg width="19" height="19" viewBox="0 0 19 19" fill="none" xmlns="http://www.w3.org/2000/svg">
<path d="M9.05826 18.1165C6.65586 18.1165 4.35187 17.1622 2.65311 15.4634C0.954361 13.7647 0 11.4607 0 9.05826C0 6.65586 0.954361 4.35187 2.65311 2.65311C4.35187 0.954361 6.65586 0 9.05826 0C11.4607 0 13.7647 0.954361 15.4634 2.65311C17.1622 4.35187 18.1165 6.65586 18.1165 9.05826C18.1165 11.4607 17.1622 13.7647 15.4634 15.4634C13.7647 17.1622 11.4607 18.1165 9.05826 18.1165ZM9.05826 0.985322C6.91968 0.993439 4.87101 1.84658 3.35879 3.35879C1.84658 4.87101 0.993439 6.91968 0.985322 9.05826C0.993439 11.1968 1.84658 13.2455 3.35879 14.7577C4.87101 16.27 6.91968 17.1231 9.05826 17.1312C11.1968 17.1231 13.2455 16.27 14.7577 14.7577C16.27 13.2455 17.1231 11.1968 17.1312 9.05826C17.1231 6.91968 16.27 4.87101 14.7577 3.35879C13.2455 1.84658 11.1968 0.993439 9.05826 0.985322Z" fill="white" fill-opacity="0.88"/>
<path d="M3.75321 15.6151L2.84375 15.1979C3.10924 14.5539 3.94284 14.2125 4.89023 13.7953C5.79969 13.3781 6.93671 12.8859 6.93671 12.2791V11.4454C6.6703 11.2327 6.44917 10.9689 6.28633 10.6694C6.12348 10.3699 6.02223 10.0408 5.98854 9.70158C5.59393 9.35155 5.34967 8.86272 5.30665 8.337C5.31437 8.02851 5.40616 7.72798 5.57213 7.46783C5.44515 6.8429 5.36904 6.20871 5.34456 5.57148C5.34456 3.48707 6.785 2.12248 9.05826 2.12248C9.7369 2.09097 10.4017 2.32153 10.9151 2.76645C11.9423 2.95609 12.772 4.16897 12.772 5.57148C12.7807 6.25029 12.6912 6.92679 12.5065 7.58003C12.6491 7.80756 12.7277 8.06934 12.734 8.33779C12.7473 8.61001 12.6918 8.8812 12.5726 9.12632C12.4534 9.37143 12.2744 9.58259 12.0521 9.74031C11.9924 10.3995 11.6811 11.0104 11.183 11.4462V12.2798C11.183 12.8108 12.1312 13.149 13.0003 13.4927C14.0275 13.872 15.0847 14.2505 15.4261 15.1228L14.4779 15.4641C14.3262 15.009 13.4167 14.7064 12.6606 14.403C11.4856 13.9858 10.1589 13.4935 10.1589 12.2806V10.916L10.3865 10.7643C10.6011 10.6169 10.7757 10.4185 10.8947 10.187C11.0137 9.95542 11.0734 9.69796 11.0684 9.43767V9.09633L11.3718 8.98255C11.4802 8.91458 11.5688 8.81929 11.6287 8.70626C11.6886 8.59323 11.7177 8.46643 11.7132 8.33858C11.7021 8.21105 11.6487 8.09087 11.5614 7.99723L11.3718 7.76967L11.4508 7.50418C11.6305 6.86285 11.7199 6.19958 11.7163 5.53355C11.7163 4.58537 11.1853 3.71621 10.6172 3.71621H10.3138L10.1621 3.45072C10.0041 3.30812 9.81777 3.20059 9.61526 3.13522C9.41274 3.06985 9.19867 3.04812 8.98715 3.07145C7.28122 3.07145 6.25798 3.98091 6.25798 5.53513C6.29262 6.17363 6.38144 6.80802 6.52347 7.43148L6.60249 7.69698L6.41285 7.88661C6.32687 7.99582 6.2742 8.12751 6.26114 8.26589C6.26114 8.53138 6.60248 8.87193 6.75419 9.02364L6.94383 9.17534V9.44084C6.95476 9.69696 7.02558 9.94694 7.15059 10.1707C7.27559 10.3945 7.45131 10.5859 7.66365 10.7296L7.89122 10.8813V12.2459C7.89122 13.4967 6.4887 14.1422 5.2379 14.6716C4.70029 14.9116 4.2019 15.2313 3.75953 15.6198" fill="white" fill-opacity="0.88"/>
</svg>
