<svg width="19" height="19" viewBox="0 0 19 19" fill="none" xmlns="http://www.w3.org/2000/svg">
<mask id="mask0_69_3013" style="mask-type:luminance" maskUnits="userSpaceOnUse" x="0" y="0" width="19" height="19">
<path d="M18.1734 0H0V18.1734H18.1734V0Z" fill="white"/>
</mask>
<g mask="url(#mask0_69_3013)">
<path d="M14.0577 18.174H4.35786C3.91847 18.174 3.49701 17.9997 3.18594 17.6894C2.87488 17.3791 2.69959 16.958 2.69855 16.5186L1.32843 10.0686C1.07183 9.94331 0.855368 9.74876 0.703465 9.50694C0.551561 9.26513 0.470265 8.98567 0.46875 8.7001C0.469168 8.28844 0.632884 7.89377 0.92397 7.60268C1.21506 7.31159 1.60973 7.14788 2.02139 7.14746H16.2069C16.6186 7.14788 17.0133 7.31159 17.3043 7.60268C17.5954 7.89377 17.7591 8.28844 17.7596 8.7001C17.7597 8.94486 17.701 9.18607 17.5886 9.40345C17.4761 9.62083 17.3131 9.80804 17.1132 9.94933L15.702 16.6237C15.6838 17.0453 15.5017 17.4432 15.1947 17.7327C14.8876 18.0222 14.4797 18.1805 14.0577 18.174ZM2.02139 8.16596C1.87986 8.16638 1.74424 8.22279 1.64416 8.32287C1.54408 8.42295 1.48767 8.55857 1.48725 8.7001C1.4903 8.81677 1.53211 8.92911 1.60608 9.01939C1.68004 9.10967 1.78196 9.17275 1.89576 9.19869C1.98782 9.22227 2.07143 9.2712 2.13708 9.33992C2.20272 9.40864 2.24778 9.49439 2.26713 9.58744L3.70994 16.412C3.70185 16.5036 3.7124 16.596 3.74095 16.6835C3.76951 16.771 3.81547 16.8518 3.87608 16.921C3.9367 16.9903 4.0107 17.0465 4.09363 17.0864C4.17656 17.1263 4.26671 17.149 4.35865 17.1531H14.0577C14.2267 17.1531 14.3888 17.086 14.5083 16.9666C14.6279 16.8472 14.6952 16.6852 14.6954 16.5162L16.1627 9.52107C16.1785 9.44542 16.2113 9.37437 16.2587 9.31331C16.3061 9.25225 16.3667 9.20278 16.4361 9.16866C16.5267 9.12673 16.6036 9.05991 16.6577 8.97598C16.7119 8.89204 16.741 8.79445 16.7419 8.69457C16.7414 8.55304 16.685 8.41742 16.585 8.31734C16.4849 8.21726 16.3492 8.16085 16.2077 8.16043H2.02139V8.16596Z" fill="white" fill-opacity="0.88"/>
<path d="M5.66621 15.1888C5.66579 15.2836 5.62795 15.3744 5.56091 15.4414C5.49387 15.5084 5.40307 15.5463 5.30827 15.5467H5.2095C5.1147 15.5463 5.0239 15.5084 4.95686 15.4414C4.88982 15.3744 4.85198 15.2836 4.85156 15.1888V10.9947C4.85198 10.8999 4.88982 10.8091 4.95686 10.742C5.0239 10.675 5.1147 10.6371 5.2095 10.6367H5.30827C5.40307 10.6371 5.49387 10.675 5.56091 10.742C5.62795 10.8091 5.66579 10.8999 5.66621 10.9947V15.1888Z" fill="white" fill-opacity="0.88"/>
<path d="M8.292 15.1888C8.29158 15.2836 8.25374 15.3744 8.1867 15.4414C8.11966 15.5084 8.02886 15.5463 7.93406 15.5467H7.83529C7.74035 15.5465 7.64935 15.5087 7.58214 15.4417C7.51493 15.3746 7.47698 15.2837 7.47656 15.1888V10.9947C7.47698 10.8997 7.51493 10.8088 7.58214 10.7417C7.64935 10.6747 7.74035 10.6369 7.83529 10.6367H7.93406C8.02886 10.6371 8.11966 10.675 8.1867 10.742C8.25374 10.8091 8.29158 10.8999 8.292 10.9947V15.1888Z" fill="white" fill-opacity="0.88"/>
<path d="M10.9123 15.1888C10.9119 15.2836 10.874 15.3744 10.807 15.4414C10.74 15.5084 10.6492 15.5463 10.5544 15.5467H10.4556C10.3608 15.5463 10.27 15.5084 10.203 15.4414C10.1359 15.3744 10.0981 15.2836 10.0977 15.1888V10.9947C10.0981 10.8999 10.1359 10.8091 10.203 10.742C10.27 10.675 10.3608 10.6371 10.4556 10.6367H10.5544C10.6492 10.6371 10.74 10.675 10.807 10.742C10.874 10.8091 10.9119 10.8999 10.9123 10.9947V15.1888Z" fill="white" fill-opacity="0.88"/>
<path d="M13.5389 15.1888C13.5385 15.2836 13.5006 15.3744 13.4336 15.4414C13.3665 15.5084 13.2757 15.5463 13.1809 15.5467H13.0814C12.9864 15.5465 12.8954 15.5087 12.8282 15.4417C12.761 15.3746 12.7231 15.2837 12.7227 15.1888V10.9947C12.7231 10.8997 12.761 10.8088 12.8282 10.7417C12.8954 10.6747 12.9864 10.6369 13.0814 10.6367H13.1802C13.275 10.6371 13.3658 10.675 13.4328 10.742C13.4998 10.8091 13.5377 10.8999 13.5381 10.9947L13.5389 15.1888Z" fill="white" fill-opacity="0.88"/>
<path d="M4.29208 5.32684C4.45876 4.16386 5.03922 3.09998 5.92696 2.3304C6.81469 1.56083 7.95016 1.13718 9.12503 1.13718C10.2999 1.13718 11.4354 1.56083 12.3231 2.3304C13.2108 3.09998 13.7913 4.16386 13.958 5.32684C13.9552 5.40024 13.9672 5.47344 13.9934 5.54207C14.0195 5.61071 14.0593 5.67335 14.1102 5.72627C14.1612 5.77918 14.2222 5.82128 14.2898 5.85003C14.3574 5.87878 14.4301 5.8936 14.5036 5.8936C14.577 5.8936 14.6497 5.87878 14.7173 5.85003C14.7849 5.82128 14.846 5.77918 14.8969 5.72627C14.9479 5.67335 14.9876 5.61071 15.0138 5.54207C15.0399 5.47344 15.052 5.40024 15.0492 5.32684C14.8826 3.87187 14.1865 2.52902 13.0937 1.55415C12.0008 0.579285 10.5875 0.0405273 9.12305 0.0405273C7.65857 0.0405273 6.24527 0.579285 5.15241 1.55415C4.05955 2.52902 3.36353 3.87187 3.19694 5.32684C3.18576 5.40528 3.19157 5.4852 3.21396 5.56119C3.23635 5.63719 3.27481 5.70749 3.32673 5.76734C3.37865 5.82718 3.44282 5.87517 3.5149 5.90806C3.58698 5.94095 3.66528 5.95797 3.74451 5.95797C3.82374 5.95797 3.90204 5.94095 3.97412 5.90806C4.0462 5.87517 4.11037 5.82718 4.16229 5.76734C4.21421 5.70749 4.25267 5.63719 4.27506 5.56119C4.29745 5.4852 4.30326 5.40528 4.29208 5.32684Z" fill="white" fill-opacity="0.88"/>
</g>
</svg>
