<svg width="19" height="18" viewBox="0 0 19 18" fill="none" xmlns="http://www.w3.org/2000/svg">
<path d="M13.5924 0C11.7055 0 10.2738 1.10621 9.06325 2.26457C8.50711 1.59233 7.8167 1.04365 7.03623 0.653693C6.25576 0.263732 5.40245 0.0410805 4.53096 0C3.91967 0.0153535 3.31742 0.151183 2.75872 0.399705C2.20002 0.648227 1.69586 1.00456 1.27511 1.44827C0.854372 1.89199 0.525326 2.41437 0.306831 2.98548C0.0883362 3.55659 -0.0153121 4.16521 0.00182585 4.77645C0.0397628 5.93817 0.441017 7.05875 1.14912 7.9805L8.18776 16.4193C8.97791 17.2553 9.12725 17.2553 9.9174 16.4193L16.9718 7.9805C17.7234 7.08312 18.13 5.94693 18.1183 4.77645C18.1355 4.16547 18.0319 3.5571 17.8137 2.9862C17.5954 2.41529 17.2666 1.89304 16.8462 1.44937C16.4258 1.00569 15.922 0.649301 15.3636 0.400597C14.8053 0.151893 14.2034 0.0157623 13.5924 0ZM15.8569 7.74345L9.06167 15.8496L2.26639 7.71106C1.55884 6.8945 1.15839 5.85664 1.13411 4.77645C1.11289 4.3094 1.18399 3.84276 1.34333 3.40322C1.50267 2.96368 1.74713 2.55989 2.06272 2.21494C2.37831 1.87 2.75883 1.59068 3.18249 1.39297C3.60616 1.19526 4.06466 1.08305 4.53175 1.06275C6.18237 1.04932 8.05344 2.73549 9.06088 4.00605C10.0415 2.77895 11.9394 1.06275 13.59 1.06275C14.5309 1.11049 15.4152 1.52705 16.0511 2.22217C16.6871 2.91729 17.0236 3.83499 16.9876 4.77645C16.9997 5.87417 16.5944 6.93552 15.8538 7.74583L15.8569 7.74345Z" fill="white" fill-opacity="0.88"/>
</svg>
