<svg width="21" height="15" viewBox="0 0 21 15" fill="none" xmlns="http://www.w3.org/2000/svg">
<g id="menu">
<path id="Vector" d="M0.75 0H20.25C20.4489 0 20.6397 0.0790178 20.7803 0.21967C20.921 0.360322 21 0.551088 21 0.75C21 0.948912 20.921 1.13968 20.7803 1.28033C20.6397 1.42098 20.4489 1.5 20.25 1.5H0.75C0.551088 1.5 0.360321 1.42098 0.219669 1.28033C0.0790176 1.13968 0 0.948912 0 0.75C0 0.551088 0.0790176 0.360322 0.219669 0.21967C0.360321 0.0790178 0.551088 0 0.75 0Z" fill="white"/>
<path id="Vector_2" d="M20.25 8.25H10.5C10.3011 8.25 10.1103 8.17098 9.96967 8.03033C9.82902 7.88968 9.75 7.69891 9.75 7.5C9.75 7.30109 9.82902 7.11032 9.96967 6.96967C10.1103 6.82902 10.3011 6.75 10.5 6.75H20.25C20.4489 6.75 20.6397 6.82902 20.7803 6.96967C20.921 7.11032 21 7.30109 21 7.5C21 7.69891 20.921 7.88968 20.7803 8.03033C20.6397 8.17098 20.4489 8.25 20.25 8.25Z" fill="white"/>
<path id="Vector_3" d="M3.75 13.5H20.25C20.4489 13.5 20.6397 13.579 20.7803 13.7197C20.921 13.8603 21 14.0511 21 14.25C21 14.4489 20.921 14.6397 20.7803 14.7803C20.6397 14.921 20.4489 15 20.25 15H3.75C3.55109 15 3.36032 14.921 3.21967 14.7803C3.07902 14.6397 3 14.4489 3 14.25C3 14.0511 3.07902 13.8603 3.21967 13.7197C3.36032 13.579 3.55109 13.5 3.75 13.5Z" fill="white"/>
</g>
</svg>
