<svg width="23" height="23" viewBox="0 0 23 23" fill="none" xmlns="http://www.w3.org/2000/svg">
<g id="Clip path group">
<mask id="mask0_9_7191" style="mask-type:luminance" maskUnits="userSpaceOnUse" x="0" y="0" width="23" height="23">
<g id="clip-path">
<path id="Rectangle 23642" d="M23 0H0V23H23V0Z" fill="white"/>
</g>
</mask>
<g mask="url(#mask0_9_7191)">
<g id="Mask Group 3">
<g id="shoppingbasket3_114870">
<path id="Path 13192" d="M17.7917 22.9999H5.51575C4.95966 22.9999 4.42627 22.7794 4.03259 22.3866C3.63891 21.9939 3.41707 21.461 3.41575 20.9049L1.68175 12.7419C1.357 12.5833 1.08305 12.3371 0.890802 12.031C0.698555 11.725 0.595668 11.3713 0.59375 11.0099C0.594279 10.4889 0.801476 9.98944 1.16987 9.62104C1.53826 9.25265 2.03776 9.04545 2.55875 9.04492H20.5117C21.0327 9.04545 21.5322 9.25265 21.9006 9.62104C22.269 9.98944 22.4762 10.4889 22.4767 11.0099C22.4769 11.3197 22.4027 11.625 22.2603 11.9001C22.118 12.1752 21.9117 12.4121 21.6588 12.5909L19.8727 21.0379C19.8496 21.5715 19.6193 22.0751 19.2306 22.4415C18.842 22.8079 18.3258 23.0082 17.7917 22.9999ZM2.55875 10.3339C2.37963 10.3344 2.20799 10.4058 2.08133 10.5325C1.95467 10.6592 1.88328 10.8308 1.88275 11.0099C1.88661 11.1576 1.93952 11.2998 2.03313 11.414C2.12675 11.5283 2.25573 11.6081 2.39975 11.6409C2.51627 11.6708 2.62208 11.7327 2.70516 11.8197C2.78824 11.9066 2.84527 12.0152 2.86975 12.1329L4.69575 20.7699C4.68551 20.8859 4.69886 21.0028 4.735 21.1136C4.77114 21.2243 4.82931 21.3265 4.90602 21.4142C4.98273 21.5018 5.07639 21.573 5.18134 21.6235C5.2863 21.674 5.4004 21.7027 5.51675 21.7079H17.7917C18.0056 21.7079 18.2107 21.623 18.362 21.4719C18.5133 21.3208 18.5985 21.1158 18.5987 20.9019L20.4557 12.0489C20.4758 11.9532 20.5173 11.8633 20.5773 11.786C20.6372 11.7087 20.714 11.6461 20.8018 11.6029C20.9165 11.5499 21.0138 11.4653 21.0823 11.3591C21.1508 11.2528 21.1877 11.1293 21.1887 11.0029C21.1882 10.8238 21.1168 10.6522 20.9902 10.5255C20.8635 10.3988 20.6919 10.3274 20.5127 10.3269H2.55875V10.3339Z" fill="white" fill-opacity="0.88"/>
<path id="Path 13193" d="M7.17163 19.2219C7.1711 19.3419 7.1232 19.4568 7.03836 19.5417C6.95352 19.6265 6.83861 19.6744 6.71863 19.6749H6.59363C6.47364 19.6744 6.35873 19.6265 6.27389 19.5417C6.18905 19.4568 6.14115 19.3419 6.14062 19.2219V13.9139C6.14115 13.794 6.18905 13.679 6.27389 13.5942C6.35873 13.5094 6.47364 13.4615 6.59363 13.4609H6.71863C6.83861 13.4615 6.95352 13.5094 7.03836 13.5942C7.1232 13.679 7.1711 13.794 7.17163 13.9139V19.2219Z" fill="white" fill-opacity="0.88"/>
<path id="Path 13194" d="M10.4929 19.2219C10.4924 19.3419 10.4445 19.4568 10.3597 19.5417C10.2748 19.6265 10.1599 19.6744 10.0399 19.6749H9.91494C9.79478 19.6747 9.67961 19.6269 9.59455 19.542C9.5095 19.4572 9.46147 19.3421 9.46094 19.2219V13.9139C9.46147 13.7938 9.5095 13.6787 9.59455 13.5938C9.67961 13.509 9.79478 13.4612 9.91494 13.4609H10.0399C10.1599 13.4615 10.2748 13.5094 10.3597 13.5942C10.4445 13.679 10.4924 13.794 10.4929 13.9139V19.2219Z" fill="white" fill-opacity="0.88"/>
<path id="Path 13195" d="M13.8123 19.2219C13.8117 19.3419 13.7638 19.4568 13.679 19.5417C13.5941 19.6265 13.4792 19.6744 13.3593 19.6749H13.2343C13.1143 19.6744 12.9994 19.6265 12.9145 19.5417C12.8297 19.4568 12.7818 19.3419 12.7812 19.2219V13.9139C12.7818 13.794 12.8297 13.679 12.9145 13.5942C12.9994 13.5094 13.1143 13.4615 13.2343 13.4609H13.3593C13.4792 13.4615 13.5941 13.5094 13.679 13.5942C13.7638 13.679 13.8117 13.794 13.8123 13.9139V19.2219Z" fill="white" fill-opacity="0.88"/>
<path id="Path 13196" d="M17.1346 19.2219C17.134 19.3419 17.0861 19.4568 17.0013 19.5417C16.9165 19.6265 16.8015 19.6744 16.6816 19.6749H16.5556C16.4354 19.6747 16.3202 19.6269 16.2352 19.542C16.1501 19.4572 16.1021 19.3421 16.1016 19.2219V13.9139C16.1021 13.7938 16.1501 13.6787 16.2352 13.5938C16.3202 13.509 16.4354 13.4612 16.5556 13.4609H16.6806C16.8005 13.4615 16.9155 13.5094 17.0003 13.5942C17.0851 13.679 17.133 13.794 17.1336 13.9139L17.1346 19.2219Z" fill="white" fill-opacity="0.88"/>
<path id="Path 13197" d="M5.43206 6.74106C5.64301 5.26921 6.37763 3.92278 7.50113 2.94881C8.62463 1.97485 10.0617 1.43868 11.5486 1.43868C13.0355 1.43868 14.4725 1.97485 15.596 2.94881C16.7195 3.92278 17.4541 5.26921 17.6651 6.74106C17.6615 6.83395 17.6768 6.9266 17.7099 7.01346C17.743 7.10032 17.7933 7.1796 17.8577 7.24657C17.9222 7.31354 17.9995 7.36681 18.0851 7.4032C18.1706 7.43959 18.2626 7.45834 18.3556 7.45834C18.4485 7.45834 18.5405 7.43959 18.6261 7.4032C18.7116 7.36681 18.7889 7.31354 18.8534 7.24657C18.9178 7.1796 18.9681 7.10032 19.0012 7.01346C19.0344 6.9266 19.0496 6.83395 19.0461 6.74106C18.8352 4.89967 17.9543 3.20018 16.5712 1.9664C15.1881 0.732625 13.3995 0.0507813 11.5461 0.0507812C9.69264 0.0507812 7.90398 0.732625 6.52088 1.9664C5.13778 3.20018 4.2569 4.89967 4.04606 6.74106C4.03192 6.84033 4.03926 6.94147 4.0676 7.03766C4.09594 7.13384 4.14462 7.22281 4.21033 7.29854C4.27604 7.37428 4.35725 7.43502 4.44847 7.47664C4.53969 7.51827 4.63879 7.53981 4.73906 7.53981C4.83933 7.53981 4.93843 7.51827 5.02965 7.47664C5.12087 7.43502 5.20209 7.37428 5.2678 7.29854C5.33351 7.22281 5.38218 7.13384 5.41052 7.03766C5.43886 6.94147 5.44621 6.84033 5.43206 6.74106Z" fill="white" fill-opacity="0.88"/>
</g>
</g>
</g>
</g>
</svg>
