<svg width="21" height="21" viewBox="0 0 21 21" fill="none" xmlns="http://www.w3.org/2000/svg">
<g id="Group 12922">
<path id="Rectangle 23655" d="M0 10.5C0 4.70101 4.70101 0 10.5 0C16.299 0 21 4.70101 21 10.5C21 16.299 16.299 21 10.5 21H0V10.5Z" fill="#06364B"/>
<g id="Group">
<g id="_x34__4_">
<g id="Group_2">
<path id="Vector" d="M14.7961 14.4227L12.6499 12.3109C13.2119 11.7003 13.5573 10.8927 13.5573 10.0041C13.557 8.10325 11.9913 6.5625 10.0597 6.5625C8.1282 6.5625 6.5625 8.10325 6.5625 10.0041C6.5625 11.905 8.1282 13.4458 10.0597 13.4458C10.8943 13.4458 11.6597 13.1571 12.261 12.6772L14.4154 14.7974C14.5204 14.9008 14.6909 14.9008 14.7958 14.7974C14.901 14.694 14.901 14.5261 14.7961 14.4227ZM10.0597 12.9163C8.42545 12.9163 7.1006 11.6125 7.1006 10.0041C7.1006 8.39581 8.42545 7.09202 10.0597 7.09202C11.694 7.09202 13.0189 8.39581 13.0189 10.0041C13.0189 11.6125 11.694 12.9163 10.0597 12.9163Z" fill="white"/>
</g>
</g>
</g>
</g>
</svg>
