<svg width="23" height="23" viewBox="0 0 23 23" fill="none" xmlns="http://www.w3.org/2000/svg">
<g id="Mask Group 1">
<g id="1485477097-avatar_78580">
<g id="Icon-User">
<path id="Fill-57" d="M11.464 22.928C8.42356 22.928 5.50766 21.7202 3.35774 19.5703C1.20783 17.4204 0 14.5044 0 11.464C0 8.42356 1.20783 5.50766 3.35774 3.35774C5.50766 1.20783 8.42356 0 11.464 0C14.5044 0 17.4204 1.20783 19.5703 3.35774C21.7202 5.50766 22.928 8.42356 22.928 11.464C22.928 14.5044 21.7202 17.4204 19.5703 19.5703C17.4204 21.7202 14.5044 22.928 11.464 22.928ZM11.464 1.24701C8.75745 1.25728 6.16468 2.337 4.25084 4.25084C2.337 6.16468 1.25728 8.75745 1.24701 11.464C1.25728 14.1706 2.337 16.7633 4.25084 18.6772C6.16468 20.591 8.75745 21.6707 11.464 21.681C14.1706 21.6707 16.7633 20.591 18.6772 18.6772C20.591 16.7633 21.6707 14.1706 21.681 11.464C21.6707 8.75745 20.591 6.16468 18.6772 4.25084C16.7633 2.337 14.1706 1.25728 11.464 1.24701Z" fill="white" fill-opacity="0.88"/>
<path id="Fill-58" d="M4.74866 19.7613L3.59766 19.2333C3.93366 18.4183 4.98865 17.9862 6.18765 17.4582C7.33865 16.9302 8.77765 16.3073 8.77765 15.5393V14.4842C8.44049 14.2151 8.16062 13.8811 7.95453 13.5021C7.74844 13.123 7.62029 12.7066 7.57765 12.2772C7.07825 11.8343 6.7691 11.2156 6.71466 10.5503C6.72443 10.1598 6.84061 9.77949 7.05066 9.45025C6.88995 8.65935 6.79363 7.85672 6.76265 7.05026C6.76265 4.41226 8.58565 2.68525 11.4626 2.68525C12.3215 2.64537 13.1629 2.93716 13.8127 3.50025C15.1127 3.74025 16.1627 5.27526 16.1627 7.05026C16.1737 7.90935 16.0605 8.76552 15.8267 9.59225C16.0071 9.88021 16.1066 10.2115 16.1147 10.5512C16.1314 10.8958 16.0611 11.239 15.9103 11.5492C15.7595 11.8594 15.533 12.1267 15.2516 12.3263C15.176 13.1605 14.7821 13.9336 14.1517 14.4853V15.5402C14.1517 16.2122 15.3517 16.6402 16.4517 17.0752C17.7517 17.5552 19.0897 18.0343 19.5217 19.1383L18.3217 19.5703C18.1297 18.9943 16.9787 18.6113 16.0217 18.2273C14.5347 17.6993 12.8557 17.0763 12.8557 15.5413V13.8142L13.1436 13.6222C13.4152 13.4356 13.6362 13.1846 13.7868 12.8915C13.9374 12.5985 14.013 12.2727 14.0067 11.9432V11.5113L14.3907 11.3673C14.5278 11.2812 14.6399 11.1606 14.7158 11.0176C14.7916 10.8745 14.8284 10.7141 14.8226 10.5523C14.8087 10.3908 14.7411 10.2388 14.6306 10.1202L14.3907 9.83225L14.4906 9.49625C14.7181 8.68459 14.8312 7.84516 14.8267 7.00225C14.8267 5.80225 14.1547 4.70225 13.4357 4.70225H13.0517L12.8596 4.36625C12.6597 4.18577 12.4239 4.04969 12.1676 3.96696C11.9113 3.88422 11.6403 3.85672 11.3727 3.88625C9.21365 3.88625 7.91866 5.03725 7.91866 7.00425C7.9625 7.81232 8.0749 8.6152 8.25465 9.40424L8.35466 9.74026L8.11465 9.98025C8.00585 10.1185 7.93918 10.2851 7.92265 10.4603C7.92265 10.7963 8.35465 11.2273 8.54665 11.4193L8.78665 11.6112V11.9473C8.80049 12.2714 8.89012 12.5878 9.04832 12.871C9.20653 13.1543 9.42891 13.3965 9.69765 13.5783L9.98566 13.7703V15.4972C9.98566 17.0802 8.21066 17.8973 6.62766 18.5673C5.94726 18.871 5.31651 19.2756 4.75665 19.7673" fill="white" fill-opacity="0.88"/>
</g>
</g>
</g>
</svg>
