<svg width="10" height="10" viewBox="0 0 10 10" fill="none" xmlns="http://www.w3.org/2000/svg">
<path id="Vector" d="M5 0C4.01109 0 3.0444 0.293245 2.22215 0.842652C1.3999 1.39206 0.759043 2.17295 0.380604 3.08658C0.00216642 4.00021 -0.0968502 5.00555 0.0960758 5.97545C0.289002 6.94535 0.765206 7.83627 1.46447 8.53553C2.16373 9.23479 3.05464 9.711 4.02455 9.90392C4.99445 10.0968 5.99979 9.99783 6.91342 9.6194C7.82705 9.24096 8.60794 8.60009 9.15735 7.77785C9.70676 6.9556 10 5.9889 10 5C10 3.67392 9.47322 2.40215 8.53553 1.46447C7.59785 0.526784 6.32608 0 5 0ZM8.65814 7.67442C8.32658 7.48003 7.97589 7.32028 7.61163 7.19767C7.78549 6.55655 7.88077 5.89667 7.89535 5.23256H9.52326C9.48013 6.11365 9.17933 6.9627 8.65814 7.67442ZM0.470932 5.23256H2.10465C2.11876 5.89702 2.21364 6.55729 2.38721 7.19884C2.02295 7.32144 1.67226 7.48119 1.3407 7.67558C0.817639 6.96407 0.515188 6.11453 0.470932 5.23256ZM1.34186 2.32558C1.67343 2.51996 2.02411 2.67972 2.38837 2.80232C2.21451 3.44344 2.11924 4.10332 2.10465 4.76744H0.476746C0.519868 3.88635 0.820675 3.0373 1.34186 2.32558ZM5.23256 3.21163C5.88246 3.19646 6.52834 3.10514 7.15698 2.93953C7.32235 3.53539 7.41412 4.14927 7.43023 4.76744H5.23256V3.21163ZM5.23256 2.74651V0.487209C5.96512 0.624418 6.61512 1.39535 7.01512 2.49651C6.43257 2.64833 5.8344 2.73223 5.23256 2.74651ZM4.76744 0.487209V2.74651C4.1656 2.73223 3.56744 2.64833 2.98488 2.49651C3.38488 1.39535 4.03488 0.624418 4.76744 0.487209ZM4.76744 3.21163V4.76744H2.56977C2.58588 4.14927 2.67765 3.53539 2.84302 2.93953C3.47166 3.10514 4.11754 3.19646 4.76744 3.21163ZM2.56977 5.23256H4.76744V6.78837C4.11754 6.80354 3.47166 6.89486 2.84302 7.06046C2.67765 6.4646 2.58588 5.85073 2.56977 5.23256ZM4.76744 7.25349V9.51279C4.03488 9.37558 3.38488 8.60465 2.98488 7.50349C3.56744 7.35166 4.1656 7.26777 4.76744 7.25349ZM5.23256 9.51279V7.25349C5.8344 7.26777 6.43257 7.35166 7.01512 7.50349C6.61512 8.60465 5.96512 9.37558 5.23256 9.51279ZM5.23256 6.78837V5.23256H7.43023C7.41412 5.85073 7.32235 6.4646 7.15698 7.06046C6.52834 6.89486 5.88246 6.80354 5.23256 6.78837ZM7.89535 4.76744C7.88124 4.10298 7.78636 3.44271 7.61279 2.80116C7.97706 2.67856 8.32774 2.5188 8.6593 2.32442C9.18444 3.03527 9.48893 3.88485 9.53488 4.76744H7.89535ZM8.36047 1.9593C8.07764 2.12008 7.78018 2.25362 7.47209 2.35814C7.27344 1.756 6.95192 1.20166 6.52791 0.730232C7.23092 0.982884 7.86077 1.40504 8.36163 1.9593H8.36047ZM3.47093 0.731395C3.04692 1.20283 2.7254 1.75716 2.52675 2.3593C2.21866 2.25479 1.9212 2.12124 1.63837 1.96046C2.13891 1.40636 2.76833 0.984216 3.47093 0.731395ZM1.63837 8.0407C1.9212 7.87992 2.21866 7.74637 2.52675 7.64186C2.7254 8.244 3.04692 8.79833 3.47093 9.26976C2.76833 9.01694 2.13891 8.5948 1.63837 8.0407ZM6.52907 9.2686C6.95309 8.79717 7.2746 8.24284 7.47326 7.6407C7.78134 7.74521 8.0788 7.87876 8.36163 8.03953C7.8611 8.59363 7.23167 9.01578 6.52907 9.2686Z" fill="white" fill-opacity="0.83"/>
</svg>
