<svg width="10" height="18" viewBox="0 0 10 18" fill="none" xmlns="http://www.w3.org/2000/svg">
<g id="Group">
<path id="Vector" d="M6.32018 17.9863C6.23493 17.9897 6.18037 17.9965 6.12581 17.9965C4.95955 17.9965 3.79671 17.9931 2.63045 17.9999C2.46676 17.9999 2.42243 17.9556 2.42243 17.7919C2.42584 15.0775 2.42584 12.3596 2.42584 9.64517C2.42584 9.57356 2.42584 9.50195 2.42584 9.40988C1.79156 9.40988 1.17433 9.40988 0.546875 9.40988C0.546875 8.44141 0.546875 7.48999 0.546875 6.51129C0.611667 6.51129 0.673049 6.51129 0.73102 6.51129C1.24254 6.51129 1.75405 6.50788 2.26557 6.5147C2.39515 6.5147 2.42925 6.47719 2.42925 6.35101C2.42243 5.59056 2.42243 4.8267 2.42925 4.06624C2.43266 3.53427 2.51792 3.01593 2.76344 2.53511C3.11468 1.8565 3.67053 1.41659 4.37301 1.14378C4.94591 0.918718 5.5495 0.836875 6.1565 0.826645C7.14543 0.813005 8.13436 0.819825 9.12329 0.816415C9.21536 0.816415 9.29038 0.813005 9.29038 0.942589C9.28697 1.88037 9.28697 2.81815 9.28697 3.75592C9.28697 3.76616 9.28356 3.77639 9.26992 3.82072C9.21195 3.82072 9.14716 3.82072 9.08237 3.82072C8.46855 3.82072 7.85473 3.81731 7.24091 3.82072C6.88626 3.82072 6.59981 3.96394 6.41908 4.27426C6.36451 4.36633 6.33041 4.48569 6.33041 4.59481C6.32018 5.17453 6.33041 5.75425 6.32359 6.33396C6.32359 6.47037 6.36451 6.50788 6.49751 6.50788C7.35003 6.50106 8.20256 6.50447 9.05509 6.50447C9.12329 6.50447 9.18808 6.50447 9.30402 6.50447C9.18467 7.47976 9.06873 8.43459 8.94937 9.39965C8.06275 9.39965 7.19999 9.39965 6.32018 9.39965C6.32018 12.2675 6.32018 15.1184 6.32018 17.9863Z" fill="#06364B"/>
</g>
</svg>
