<svg width="30" height="22" viewBox="0 0 30 22" fill="none" xmlns="http://www.w3.org/2000/svg">
<g id="Group 13083">
<path id="Vector" d="M29.0551 3.66656C29.0551 3.3424 28.9264 3.03153 28.6971 2.80232C28.4679 2.57311 28.1571 2.44434 27.8329 2.44434H14.9996C14.6754 2.44434 14.3645 2.57311 14.1353 2.80232C13.9061 3.03153 13.7773 3.3424 13.7773 3.66656C13.7773 3.99071 13.9061 4.30159 14.1353 4.5308C14.3645 4.76001 14.6754 4.88878 14.9996 4.88878H27.8329C28.1571 4.88878 28.4679 4.76001 28.6971 4.5308C28.9264 4.30159 29.0551 3.99071 29.0551 3.66656Z" fill="#06364B"/>
<path id="Vector_2" d="M2.16753 4.8889H5.43698C5.7253 5.70438 6.29262 6.39168 7.03868 6.82933C7.78474 7.26698 8.66149 7.4268 9.51399 7.28054C10.3665 7.13427 11.1398 6.69134 11.6973 6.03004C12.2548 5.36873 12.5606 4.53163 12.5606 3.66667C12.5606 2.80172 12.2548 1.96462 11.6973 1.30331C11.1398 0.642006 10.3665 0.199078 9.51399 0.0528129C8.66149 -0.0934521 7.78474 0.0663637 7.03868 0.504014C6.29262 0.941663 5.7253 1.62897 5.43698 2.44445H2.16753C1.84338 2.44445 1.5325 2.57322 1.30329 2.80243C1.07408 3.03164 0.945313 3.34252 0.945312 3.66667C0.945313 3.99083 1.07408 4.3017 1.30329 4.53092C1.5325 4.76013 1.84338 4.8889 2.16753 4.8889ZM8.88976 2.44445C9.13149 2.44445 9.36779 2.51613 9.56879 2.65043C9.76978 2.78473 9.92644 2.97562 10.0189 3.19895C10.1115 3.42228 10.1357 3.66803 10.0885 3.90512C10.0413 4.14221 9.92493 4.35998 9.754 4.53092C9.58307 4.70185 9.36529 4.81825 9.1282 4.86541C8.89111 4.91257 8.64536 4.88837 8.42203 4.79586C8.1987 4.70335 8.00782 4.5467 7.87352 4.3457C7.73922 4.14471 7.66753 3.90841 7.66753 3.66667C7.66753 3.34252 7.7963 3.03164 8.02552 2.80243C8.25473 2.57322 8.5656 2.44445 8.88976 2.44445Z" fill="#06364B"/>
<path id="Vector_3" d="M27.8341 9.77746H23.3424C23.0541 8.96198 22.4867 8.27467 21.7407 7.83702C20.9946 7.39937 20.1179 7.23956 19.2654 7.38582C18.4129 7.53209 17.6395 7.97501 17.082 8.63632C16.5245 9.29763 16.2188 10.1347 16.2188 10.9997C16.2188 11.8646 16.5245 12.7017 17.082 13.363C17.6395 14.0244 18.4129 14.4673 19.2654 14.6135C20.1179 14.7598 20.9946 14.6 21.7407 14.1623C22.4867 13.7247 23.0541 13.0374 23.3424 12.2219H27.8341C28.1582 12.2219 28.4691 12.0931 28.6983 11.8639C28.9275 11.6347 29.0563 11.3238 29.0563 10.9997C29.0563 10.6755 28.9275 10.3647 28.6983 10.1354C28.4691 9.90623 28.1582 9.77746 27.8341 9.77746ZM19.8896 12.2219C19.6479 12.2219 19.4116 12.1502 19.2106 12.0159C19.0096 11.8816 18.8529 11.6907 18.7604 11.4674C18.6679 11.2441 18.6437 10.9983 18.6909 10.7612C18.738 10.5242 18.8544 10.3064 19.0254 10.1354C19.1963 9.96451 19.4141 9.8481 19.6512 9.80094C19.8883 9.75378 20.134 9.77799 20.3573 9.8705C20.5807 9.963 20.7715 10.1197 20.9058 10.3207C21.0401 10.5216 21.1118 10.7579 21.1118 10.9997C21.1118 11.3238 20.9831 11.6347 20.7538 11.8639C20.5246 12.0931 20.2138 12.2219 19.8896 12.2219Z" fill="#06364B"/>
<path id="Vector_4" d="M13.7786 9.77734H2.16753C1.84338 9.77734 1.5325 9.90611 1.30329 10.1353C1.07408 10.3645 0.945313 10.6754 0.945312 10.9996C0.945313 11.3237 1.07408 11.6346 1.30329 11.8638C1.5325 12.093 1.84338 12.2218 2.16753 12.2218H13.7786C14.1028 12.2218 14.4137 12.093 14.6429 11.8638C14.8721 11.6346 15.0009 11.3237 15.0009 10.9996C15.0009 10.6754 14.8721 10.3645 14.6429 10.1353C14.4137 9.90611 14.1028 9.77734 13.7786 9.77734Z" fill="#06364B"/>
<path id="Vector_5" d="M27.8338 17.1113H17.4449C17.1207 17.1113 16.8098 17.2401 16.5806 17.4693C16.3514 17.6985 16.2227 18.0094 16.2227 18.3336C16.2227 18.6577 16.3514 18.9686 16.5806 19.1978C16.8098 19.427 17.1207 19.5558 17.4449 19.5558H27.8338C28.1579 19.5558 28.4688 19.427 28.698 19.1978C28.9272 18.9686 29.056 18.6577 29.056 18.3336C29.056 18.0094 28.9272 17.6985 28.698 17.4693C28.4688 17.2401 28.1579 17.1113 27.8338 17.1113Z" fill="#06364B"/>
<path id="Vector_6" d="M11.3342 14.667C10.5767 14.6679 9.838 14.9033 9.21973 15.341C8.60146 15.7788 8.13393 16.3972 7.88142 17.1114H2.16753C1.84338 17.1114 1.5325 17.2402 1.30329 17.4694C1.07408 17.6986 0.945313 18.0095 0.945312 18.3337C0.945313 18.6578 1.07408 18.9687 1.30329 19.1979C1.5325 19.4271 1.84338 19.5559 2.16753 19.5559H7.88142C8.10556 20.1898 8.49969 20.7499 9.02073 21.1749C9.54176 21.6 10.1696 21.8735 10.8357 21.9657C11.5017 22.0579 12.1803 21.9652 12.7972 21.6976C13.4141 21.4301 13.9455 20.9981 14.3334 20.4489C14.7213 19.8997 14.9507 19.2544 14.9965 18.5835C15.0424 17.9127 14.9028 17.2422 14.5932 16.6453C14.2836 16.0484 13.8158 15.5482 13.241 15.1993C12.6663 14.8504 12.0066 14.6662 11.3342 14.667ZM11.3342 19.5559C11.0925 19.5559 10.8562 19.4842 10.6552 19.3499C10.4542 19.2156 10.2975 19.0247 10.205 18.8014C10.1125 18.5781 10.0883 18.3323 10.1355 18.0952C10.1826 17.8581 10.299 17.6403 10.47 17.4694C10.6409 17.2985 10.8587 17.1821 11.0958 17.1349C11.3328 17.0878 11.5786 17.112 11.8019 17.2045C12.0253 17.297 12.2161 17.4536 12.3504 17.6546C12.4847 17.8556 12.5564 18.0919 12.5564 18.3337C12.5564 18.6578 12.4277 18.9687 12.1984 19.1979C11.9692 19.4271 11.6584 19.5559 11.3342 19.5559Z" fill="#06364B"/>
</g>
</svg>
