<svg width="22" height="21" viewBox="0 0 22 21" fill="none" xmlns="http://www.w3.org/2000/svg">
<g id="3643770-favorite-heart-like-likes-love-loved_113432 1">
<g id="Layer 54">
<path id="Vector" d="M11.4002 17.9892C11.1515 17.9898 10.9052 17.9412 10.6753 17.8463C10.4455 17.7513 10.2367 17.6119 10.061 17.4359L3.58492 10.9599C3.07334 10.4427 2.66978 9.82893 2.39776 9.15427C2.12574 8.47962 1.99069 7.75758 2.00049 7.03021C2.00542 6.36364 2.1418 5.7046 2.40183 5.09082C2.66187 4.47704 3.04043 3.9206 3.51585 3.45336C3.99127 2.98612 4.5542 2.61726 5.17239 2.36791C5.79059 2.11857 6.4519 1.99364 7.11845 2.00027C7.79694 1.99344 8.46988 2.12292 9.09739 2.38105C9.72489 2.63918 10.2942 3.02069 10.7714 3.50297L11.4002 4.13171L11.9158 3.61614C12.806 2.7023 13.9973 2.14206 15.2689 2.03917C16.5405 1.93629 17.8063 2.29773 18.8319 3.05656C19.4157 3.50614 19.897 4.07494 20.2438 4.72509C20.5906 5.37524 20.7949 6.0918 20.8431 6.82708C20.8913 7.56235 20.7822 8.29945 20.5233 8.98929C20.2643 9.67913 19.8613 10.3059 19.3412 10.8278L12.7394 17.4359C12.5637 17.6119 12.3549 17.7513 12.125 17.8463C11.8952 17.9412 11.6489 17.9898 11.4002 17.9892Z" fill="#E51D65"/>
</g>
</g>
</svg>
