<svg width="22" height="21" viewBox="0 0 22 21" fill="none" xmlns="http://www.w3.org/2000/svg">
<g id="3643770-favorite-heart-like-likes-love-loved_113432 1">
<g id="Layer 54">
<path id="Vector" d="M11.0525 18.1298C10.8039 18.1304 10.5575 18.0818 10.3277 17.9869C10.0978 17.8919 9.88905 17.7525 9.71332 17.5765L3.23727 11.1005C2.72569 10.5833 2.32213 9.96954 2.05011 9.29489C1.77809 8.62023 1.64304 7.89819 1.65284 7.17082C1.65777 6.50425 1.79416 5.84521 2.05419 5.23143C2.31422 4.61766 2.69279 4.06121 3.1682 3.59397C3.64362 3.12673 4.20655 2.75787 4.82474 2.50853C5.44294 2.25918 6.10425 2.13425 6.77081 2.14088C7.44929 2.13405 8.12224 2.26353 8.74974 2.52166C9.37724 2.77979 9.94651 3.16131 10.4238 3.64358L11.0525 4.27232L11.5681 3.75675C12.4584 2.84292 13.6496 2.28267 14.9212 2.17979C16.1929 2.0769 17.4587 2.43834 18.4843 3.19717C19.0681 3.64675 19.5494 4.21555 19.8962 4.8657C20.243 5.51585 20.4472 6.23242 20.4954 6.96769C20.5436 7.70296 20.4346 8.44006 20.1756 9.1299C19.9167 9.81975 19.5137 10.4465 18.9936 10.9684L12.3918 17.5765C12.216 17.7525 12.0072 17.8919 11.7774 17.9869C11.5476 18.0818 11.3012 18.1304 11.0525 18.1298ZM6.74566 3.39208C5.74628 3.39106 4.78572 3.77889 4.06721 4.47352C3.70091 4.82595 3.4096 5.24879 3.2108 5.71662C3.012 6.18446 2.90979 6.68765 2.91033 7.19597C2.90482 7.75512 3.01035 8.3098 3.22081 8.82786C3.43127 9.34592 3.74247 9.81705 4.13637 10.2139L10.6124 16.69C10.6709 16.7489 10.7404 16.7957 10.817 16.8276C10.8936 16.8595 10.9758 16.876 11.0588 16.876C11.1418 16.876 11.224 16.8595 11.3006 16.8276C11.3772 16.7957 11.4468 16.7489 11.5052 16.69L18.1133 10.0756C18.5012 9.67953 18.8009 9.20586 18.9927 8.68571C19.1845 8.16557 19.2641 7.61073 19.2262 7.05765C19.1926 6.49889 19.0387 5.95399 18.775 5.46023C18.5113 4.96648 18.144 4.53552 17.6983 4.19687C16.9163 3.62025 15.9512 3.3476 14.9831 3.42973C14.0149 3.51186 13.1095 3.94316 12.4358 4.64328L11.4989 5.60525C11.4405 5.66418 11.371 5.71096 11.2943 5.74288C11.2177 5.7748 11.1355 5.79123 11.0525 5.79123C10.9695 5.79123 10.8874 5.7748 10.8107 5.74288C10.7341 5.71096 10.6646 5.66418 10.6061 5.60525L9.53727 4.53639C8.80108 3.80659 7.80742 3.39558 6.77081 3.39208H6.74566Z" fill="#101820"/>
</g>
</g>
</svg>
