<svg width="23" height="22" viewBox="0 0 23 22" fill="none" xmlns="http://www.w3.org/2000/svg">
<g id="Mask Group 2">
<g id="like-heart-outline-symbol_icon-icons.com_73226">
<g id="_x31__39_">
<g id="Group 12769">
<path id="Path 13191" d="M17.2023 0C14.8143 0 13.0023 1.4 11.4703 2.866C10.7665 2.01522 9.89269 1.32083 8.90495 0.827304C7.9172 0.333775 6.83727 0.0519908 5.73431 0C4.96067 0.0194311 4.19848 0.191335 3.4914 0.505861C2.78431 0.820387 2.14625 1.27135 1.61377 1.83291C1.08128 2.39447 0.664845 3.05559 0.388321 3.77838C0.111797 4.50117 -0.0193787 5.27142 0.00231077 6.045C0.0503233 7.51526 0.558145 8.93345 1.45431 10.1L10.3623 20.78C11.3623 21.838 11.5513 21.838 12.5513 20.78L21.4793 10.1C22.4305 8.9643 22.945 7.52634 22.9303 6.045C22.952 5.27175 22.821 4.50182 22.5447 3.77928C22.2684 3.05675 21.8523 2.39581 21.3203 1.8343C20.7882 1.27279 20.1506 0.821745 19.444 0.506989C18.7374 0.192233 17.9756 0.0199486 17.2023 0ZM20.0683 9.8L11.4683 20.059L2.86831 9.759C1.97284 8.72558 1.46604 7.41207 1.43531 6.045C1.40846 5.45391 1.49843 4.86333 1.7001 4.30706C1.90176 3.75079 2.21115 3.23975 2.61055 2.8032C3.00995 2.36664 3.49153 2.01314 4.02772 1.76292C4.5639 1.5127 5.14417 1.37069 5.73531 1.345C7.82431 1.328 10.1923 3.462 11.4673 5.07C12.7083 3.517 15.1103 1.345 17.1993 1.345C18.3901 1.40542 19.5092 1.93261 20.3141 2.81234C21.1189 3.69207 21.5448 4.8535 21.4993 6.045C21.5146 7.43427 21.0017 8.77748 20.0643 9.803L20.0683 9.8Z" fill="white" fill-opacity="0.88"/>
</g>
</g>
</g>
</g>
</svg>
