<svg width="104" height="31" viewBox="0 0 104 31" fill="none" xmlns="http://www.w3.org/2000/svg">
<g id="logo 1" clip-path="url(#clip0_6_494)">
<g id="Page-1">
<g id="Desktop-_x2F_-Home-1">
<g id="Group-11-Copy">
<g id="Group-7">
<path id="Fill-1" d="M36.3167 22.9052H38.2482V10.7266H36.3167V22.9052ZM37.2825 6.15039C38.0253 6.15039 38.6196 6.74087 38.6196 7.47896C38.6196 8.21706 38.0253 8.80753 37.2825 8.80753C36.5396 8.80753 35.9453 8.21706 35.9453 7.47896C35.9453 6.74087 36.5396 6.15039 37.2825 6.15039Z" fill="#292121"/>
<path id="Vector" d="M51.8419 6.15039V12.2028C50.6533 11.0956 49.019 10.4313 47.3847 10.4313C43.8933 10.4313 40.9219 13.2361 40.9219 16.779C40.9219 20.3218 43.819 23.2004 47.3847 23.2004C49.019 23.2004 50.6533 22.5361 51.8419 21.429V22.9052H53.7733V6.15039H51.8419ZM47.3847 21.2813C44.9333 21.2813 42.9276 19.2885 42.9276 16.8528C42.9276 14.4171 44.859 12.498 47.3104 12.4242H47.3847C49.8362 12.4242 51.8419 14.4171 51.8419 16.8528C51.8419 19.2885 49.8362 21.2813 47.3847 21.2813Z" fill="#292121"/>
<path id="Fill-4" d="M63.2831 10.4316C61.6488 10.4316 60.0145 11.0959 58.826 12.2031V10.7269H56.8945V22.8316H58.826V16.7793C58.826 14.3435 60.8317 12.3507 63.2831 12.3507V10.4316Z" fill="#292121"/>
<path id="Vector_2" d="M75.1677 10.7265V12.1289C73.9791 11.0217 72.3448 10.3574 70.7105 10.3574C67.3677 10.505 64.6934 13.1622 64.5448 16.4836C64.3962 20.0265 67.1448 22.9789 70.7105 23.1265C72.3448 23.1265 73.9791 22.4622 75.1677 21.355V22.8312H77.1734V10.7265H75.1677ZM70.7105 21.2812C68.2591 21.2812 66.2534 19.2884 66.2534 16.8527C66.3277 14.4169 68.2591 12.4241 70.7105 12.4241C73.162 12.4241 75.1677 14.4169 75.1677 16.8527C75.1677 19.2884 73.162 21.2812 70.7105 21.2812Z" fill="#292121"/>
<path id="Fill-6" d="M82.1502 10.7269H80.1445V22.8316H82.076V16.7793C82.076 14.3435 84.0817 12.3507 86.5331 12.3507C88.9845 12.3507 90.9902 14.3435 90.9902 16.7793V22.8316H92.996V16.7793C92.996 14.3435 95.0017 12.3507 97.4531 12.3507C99.9045 12.3507 101.91 14.3435 101.91 16.7793V22.8316H103.842V16.7793C103.842 13.2364 100.945 10.4316 97.4531 10.4316C95.2245 10.4316 93.2188 11.5388 92.0302 13.384C90.8417 11.5388 88.836 10.4316 86.6074 10.4316C84.9731 10.4316 83.3388 11.0221 82.1502 12.2031V10.7269Z" fill="#292121"/>
</g>
<g id="Group-10">
<path id="Fill-8" d="M6.16518 1.47336C2.97089 3.17098 0.965179 6.34479 0.668036 9.88765V12.7662C0.816607 13.2091 1.26232 13.5781 1.78232 13.5781C2.37661 13.5781 2.89661 13.0615 2.89661 12.471V10.9948C2.89661 7.82098 4.53089 4.94241 7.35375 3.39241C10.1023 1.7686 13.5195 1.7686 16.1938 3.39241L17.5309 4.13051C18.0509 4.42574 18.7195 4.27812 19.0166 3.76146C19.3138 3.24479 19.1652 2.58051 18.6452 2.28527L17.308 1.54717C15.5995 0.513839 13.668 -0.00282786 11.7366 -0.00282786C9.80518 -0.0766374 7.87375 0.440029 6.16518 1.47336ZM20.7252 4.8686C20.428 5.38527 20.6509 6.04955 21.1709 6.34479L22.4338 7.08289C25.1823 8.63289 26.8909 11.5115 26.8909 14.6853C26.9652 17.8591 25.2566 20.7376 22.4338 22.2876L16.0452 25.9781C13.2966 27.6019 9.87947 27.6019 7.13089 25.9781C4.38232 24.4281 2.67375 21.5496 2.74804 18.3757V16.8996C2.74804 16.3091 2.22804 15.7924 1.63375 15.7924C1.11375 15.7924 0.668036 16.1615 0.59375 16.6043V19.4091C0.890893 22.9519 2.89661 26.1257 6.09089 27.8234C9.50804 29.8162 13.7423 29.8162 17.1595 27.8234L23.6223 24.1329C27.1138 22.2138 29.268 18.5972 29.1938 14.6115C29.268 10.6996 27.1138 7.00908 23.6223 5.09003L22.3595 4.35193L22.2852 4.27812C22.0623 4.27812 21.9138 4.27812 21.6909 4.27812C21.3195 4.27812 20.948 4.49955 20.7252 4.8686ZM8.39375 5.31146C6.31375 6.49241 5.05089 8.63289 5.05089 10.9948V18.3757C4.97661 20.7376 6.31375 22.9519 8.39375 24.0591C10.3995 25.24 12.9995 25.24 15.0052 24.0591L16.3423 23.321C16.8623 23.0257 17.0109 22.3615 16.7138 21.8448C16.4166 21.3281 15.748 21.1067 15.228 21.4019L13.9652 22.14C12.5538 22.9519 10.9195 22.9519 9.50804 22.14C8.09661 21.4019 7.27946 19.9257 7.27946 18.3019V10.921C7.27946 9.37098 8.09661 7.89479 9.50804 7.08289C10.8452 6.27098 12.5538 6.27098 13.9652 7.08289L20.3538 10.7734C21.7652 11.5115 22.5823 12.9876 22.5823 14.6115C22.5823 16.1615 21.7652 17.6376 20.3538 18.4496L19.0166 19.1876C18.4966 19.4829 18.348 20.221 18.7195 20.6638C19.0166 21.1067 19.6109 21.3281 20.1309 21.0329L21.3938 20.2948C23.4738 19.1138 24.7366 16.9734 24.7366 14.6115C24.8109 12.2496 23.4738 10.0353 21.3938 8.92812L15.0052 5.23765C13.9652 4.64717 12.8509 4.35193 11.6623 4.35193C10.548 4.42574 9.43375 4.72098 8.39375 5.31146ZM9.73089 9.96146C9.50804 10.2567 9.43375 10.6257 9.43375 10.9948V12.471C9.50804 13.0615 10.028 13.5043 10.6223 13.4305C11.1423 13.3567 11.588 12.9876 11.588 12.471V11.4376C11.588 11.3638 11.6623 11.29 11.7366 11.2162C11.8109 11.2162 11.8852 11.2162 12.0338 11.2162L14.8566 12.84L17.6795 14.4638C17.7537 14.4638 17.828 14.6115 17.828 14.6853C17.828 14.7591 17.7537 14.9067 17.6795 14.9067L14.8566 16.5305L12.0338 18.1543C11.9595 18.2281 11.8109 18.2281 11.7366 18.1543C11.6623 18.1543 11.588 18.0067 11.588 17.9329V16.8996C11.5138 16.3091 10.9937 15.8662 10.3995 15.94C9.87946 16.0138 9.43375 16.3829 9.43375 16.8996V18.3757C9.43375 19.1876 9.87946 19.8519 10.548 20.221C11.2166 20.59 12.0338 20.59 12.7766 20.221L19.1652 16.5305C19.8337 16.1615 20.2795 15.4234 20.2795 14.6853C20.2795 13.8734 19.8337 13.2091 19.1652 12.84L12.7766 9.14955C12.4052 8.92812 12.0337 8.85431 11.6623 8.85431C10.9195 8.85431 10.1766 9.22336 9.73089 9.96146Z" fill="#F5821E"/>
</g>
</g>
</g>
</g>
</g>
<defs>
<clipPath id="clip0_6_494">
<rect width="104" height="31" fill="white"/>
</clipPath>
</defs>
</svg>
