<svg width="35" height="35" viewBox="0 0 35 35" fill="none" xmlns="http://www.w3.org/2000/svg">
<g id="Group 13668">
<rect id="Rectangle 23728" x="0.5" y="0.5" width="34" height="34" rx="4.5" fill="#F9F9F9" stroke="#CCCED3"/>
<g id="Group-11-Copy">
<g id="Group-10">
<path id="Fill-8" d="M10.8959 8.03709C8.66223 9.22415 7.25972 11.4435 7.05194 13.9208V15.9337C7.15583 16.2433 7.4675 16.5014 7.83111 16.5014C8.24667 16.5014 8.61028 16.1401 8.61028 15.7272V14.695C8.61028 12.4757 9.75307 10.4628 11.727 9.37899C13.6489 8.24353 16.0384 8.24353 17.9084 9.37899L18.8434 9.89511C19.207 10.1016 19.6745 9.99833 19.8823 9.63705C20.0901 9.27577 19.9862 8.81126 19.6226 8.60481L18.6876 8.0887C17.4928 7.36613 16.1423 7.00485 14.7917 7.00485C13.4411 6.95324 12.0906 7.31452 10.8959 8.03709ZM21.077 10.4112C20.8692 10.7725 21.0251 11.237 21.3887 11.4435L22.2717 11.9596C24.1937 13.0434 25.3884 15.0563 25.3884 17.2756C25.4404 19.4949 24.2456 21.5077 22.2717 22.5916L17.8045 25.1722C15.8825 26.3076 13.4931 26.3076 11.5711 25.1722C9.64918 24.0883 8.45445 22.0755 8.5064 19.8562V18.8239C8.5064 18.411 8.14278 18.0498 7.72723 18.0498C7.36361 18.0498 7.05194 18.3078 7 18.6175V20.5787C7.20778 23.0561 8.61028 25.2754 10.8439 26.4625C13.2334 27.856 16.1942 27.856 18.5837 26.4625L23.1028 23.8819C25.5442 22.54 27.0506 20.011 26.9987 17.224C27.0506 14.4885 25.5442 11.908 23.1028 10.5661L22.2198 10.0499L22.1678 9.99833C22.012 9.99833 21.9081 9.99833 21.7523 9.99833C21.4926 9.99833 21.2328 10.1532 21.077 10.4112ZM12.4542 10.7209C10.9997 11.5467 10.1167 13.0434 10.1167 14.695V19.8562C10.0647 21.5077 10.9997 23.0561 12.4542 23.8303C13.8567 24.656 15.6748 24.656 17.0773 23.8303L18.0123 23.3141C18.3759 23.1077 18.4798 22.6432 18.272 22.2819C18.0642 21.9206 17.5967 21.7658 17.2331 21.9722L16.35 22.4884C15.3631 23.0561 14.2203 23.0561 13.2334 22.4884C12.2464 21.9722 11.675 20.94 11.675 19.8046V14.6434C11.675 13.5595 12.2464 12.5273 13.2334 11.9596C14.1684 11.3918 15.3631 11.3918 16.35 11.9596L20.8173 14.5402C21.8042 15.0563 22.3756 16.0885 22.3756 17.224C22.3756 18.3078 21.8042 19.34 20.8173 19.9078L19.8823 20.4239C19.5187 20.6303 19.4148 21.1465 19.6745 21.4561C19.8823 21.7658 20.2978 21.9206 20.6614 21.7142L21.5445 21.1981C22.999 20.3723 23.882 18.8755 23.882 17.224C23.934 15.5724 22.999 14.024 21.5445 13.2499L17.0773 10.6693C16.35 10.2564 15.5709 10.0499 14.7398 10.0499C13.9606 10.1016 13.1814 10.308 12.4542 10.7209ZM13.3892 13.9724C13.2334 14.1789 13.1814 14.4369 13.1814 14.695V15.7272C13.2334 16.1401 13.597 16.4498 14.0125 16.3982C14.3761 16.3466 14.6878 16.0885 14.6878 15.7272V15.0047C14.6878 14.9531 14.7398 14.9014 14.7917 14.8498C14.8436 14.8498 14.8956 14.8498 14.9995 14.8498L16.9734 15.9853L18.9473 17.1207C18.9992 17.1207 19.0512 17.224 19.0512 17.2756C19.0512 17.3272 18.9992 17.4304 18.9473 17.4304L16.9734 18.5659L14.9995 19.7013C14.9475 19.7529 14.8436 19.7529 14.7917 19.7013C14.7398 19.7013 14.6878 19.5981 14.6878 19.5465V18.8239C14.6359 18.411 14.2723 18.1014 13.8567 18.153C13.4931 18.2046 13.1814 18.4626 13.1814 18.8239V19.8562C13.1814 20.4239 13.4931 20.8884 13.9606 21.1465C14.4281 21.4045 14.9995 21.4045 15.5189 21.1465L19.9862 18.5659C20.4537 18.3078 20.7653 17.7917 20.7653 17.2756C20.7653 16.7078 20.4537 16.2433 19.9862 15.9853L15.5189 13.4047C15.2592 13.2499 14.9995 13.1983 14.7398 13.1983C14.2203 13.1983 13.7009 13.4563 13.3892 13.9724Z" fill="#F5821E"/>
</g>
</g>
</g>
</svg>
