<svg width="35" height="35" viewBox="0 0 35 35" fill="none" xmlns="http://www.w3.org/2000/svg">
<g id="Group 13669">
<rect id="Rectangle 23729" x="0.5" y="0.5" width="34" height="34" rx="4.5" fill="#F9F9F9" stroke="#CCCED3"/>
<path id="Combined-Shape" fill-rule="evenodd" clip-rule="evenodd" d="M17.3771 7.57745V16.5519C17.3771 16.8887 17.1257 17.009 16.8971 16.7684L8.11995 7.50526C7.89138 7.26466 8.00567 7 8.32567 7H16.8743C17.1943 7 17.3771 7.16842 17.3771 7.57745ZM17.3771 17.6827V26.6572C17.3771 26.994 17.1257 27.1143 16.8971 26.8737L8.11995 17.6106C7.89138 17.3699 8.00567 17.1053 8.32567 17.1053H16.8743C17.1943 17.1053 17.3771 17.2737 17.3771 17.6827ZM27 7.57745V16.5519C27 16.8887 26.7486 17.009 26.52 16.7684L17.72 7.50526C17.4914 7.26466 17.6057 7 17.9257 7H26.4743C26.8171 7 27 7.16842 27 7.57745ZM27 17.6827V26.6572C27 26.994 26.7486 27.1143 26.52 26.8737L17.72 17.6106C17.4914 17.3699 17.6057 17.1053 17.9257 17.1053H26.4743C26.8171 17.1053 27 17.2737 27 17.6827Z" fill="#006037"/>
</g>
</svg>
