<svg width="16" height="16" viewBox="0 0 16 16" fill="none" xmlns="http://www.w3.org/2000/svg">
<g id="Group">
<g id="Group_2">
<path id="Vector" fill-rule="evenodd" clip-rule="evenodd" d="M8.26703 0.962704C9.29751 0.962704 10.3281 0.957934 11.3585 0.964071C12.328 0.969859 13.2385 1.19095 14.0274 1.78032C15.0577 2.54999 15.5849 3.60134 15.683 4.86997C15.7176 5.31645 15.7068 5.76682 15.7074 6.2154C15.7098 7.95506 15.7085 9.69473 15.7083 11.4344C15.7082 12.145 15.6094 12.8387 15.3087 13.4884C14.6988 14.8064 13.6349 15.5269 12.2312 15.7766C11.9386 15.8286 11.6366 15.8481 11.3389 15.8489C9.28342 15.855 7.22793 15.8536 5.17246 15.8515C4.1036 15.8504 3.12602 15.5681 2.29297 14.8747C1.44659 14.1702 0.999965 13.2488 0.861032 12.1686C0.837065 11.9823 0.822391 11.7933 0.822216 11.6055C0.820209 9.44481 0.807164 7.28395 0.828339 5.12343C0.839916 3.94301 1.23296 2.89641 2.1117 2.07173C2.8406 1.38773 3.72659 1.03033 4.71116 0.995354C5.89504 0.953294 7.08159 0.985392 8.26699 0.985392C8.267 0.977814 8.267 0.970252 8.26703 0.962704ZM8.2554 14.477C9.24696 14.477 10.2385 14.481 11.23 14.4743C11.4893 14.4726 11.7524 14.4597 12.0068 14.4137C12.9787 14.238 13.7176 13.7505 14.1048 12.8041C14.3016 12.3234 14.3658 11.8076 14.3742 11.308C14.4067 9.36978 14.3884 7.4307 14.3861 5.49195C14.3859 5.28191 14.3836 5.06954 14.3539 4.86229C14.2206 3.93169 13.8172 3.16894 12.9607 2.7051C12.4827 2.44621 11.9638 2.34846 11.4244 2.34829C9.34715 2.34768 7.26991 2.34707 5.19269 2.34956C5.00496 2.34979 4.81558 2.36017 4.62983 2.38628C3.57186 2.53482 2.79259 3.05623 2.4026 4.08203C2.24521 4.49598 2.19492 4.92973 2.19483 5.37012C2.19452 7.3975 2.19258 9.42484 2.19749 11.4523C2.19809 11.7003 2.21659 11.9519 2.26099 12.1956C2.45795 13.277 3.06093 14.0202 4.13479 14.3191C4.49265 14.4187 4.87518 14.4626 5.24768 14.4701C6.24992 14.4903 7.25278 14.477 8.2554 14.477Z" fill="#06364B"/>
<path id="Vector_2" fill-rule="evenodd" clip-rule="evenodd" d="M12.1005 8.38185C12.0996 10.5019 10.3698 12.2263 8.24912 12.2212C6.12767 12.216 4.41921 10.5036 4.41797 8.38129C4.41673 6.2613 6.14396 4.53675 8.26618 4.53906C10.3701 4.54133 12.1014 6.2765 12.1005 8.38185ZM8.26069 10.837C9.61333 10.8381 10.7274 9.72484 10.725 8.37449C10.7227 7.03351 9.61148 5.9202 8.26986 5.91475C6.91917 5.90926 5.80566 7.01909 5.8028 8.37364C5.79995 9.73013 6.90328 10.836 8.26069 10.837Z" fill="#06364B"/>
<path id="Vector_3" fill-rule="evenodd" clip-rule="evenodd" d="M12.2439 5.31392C11.7637 5.30963 11.3852 4.92537 11.3867 4.44377C11.3882 3.9567 11.7763 3.5748 12.2662 3.57815C12.7409 3.58143 13.1278 3.97326 13.1264 4.44935C13.1249 4.93219 12.7308 5.31827 12.2439 5.31392Z" fill="#06364B"/>
</g>
</g>
</svg>
