<svg width="188" height="45" viewBox="0 0 188 45" fill="none" xmlns="http://www.w3.org/2000/svg">
<g id="&#208;&#161;&#208;&#187;&#208;&#190;&#208;&#185;_x0020_1">
<path id="Vector" d="M17.8952 14.3031L25.8782 1.72977C26.1444 1.26404 26.6766 0.931446 27.2088 0.931446H28.0736V0H21.4876V0.931446H22.9511C23.2837 0.931446 23.4833 1.19755 23.4833 1.46366C23.4833 1.59679 23.4833 1.66328 23.4168 1.72977L10.4444 22.286V1.99587C10.4444 1.39717 10.9101 0.931446 11.4423 0.931446H12.6397V0H0V0.931446H1.19741C1.79611 0.931446 2.26183 1.39717 2.26183 1.99587V42.4431C2.26183 43.0418 1.79611 43.5075 1.19741 43.5075H0V44.4388H12.6397V43.5075H11.4423C10.9101 43.5075 10.4444 43.0418 10.4444 42.4431V26.1444L12.4401 23.0177L19.8244 42.7757C19.8244 42.8421 19.8909 42.9088 19.8909 42.9753C19.8909 43.2414 19.6248 43.5075 19.3587 43.5075H18.2943V44.4388H30.934V43.5075H29.8696C29.2044 43.5075 28.6721 43.1084 28.4725 42.5095L17.895 14.303L17.8952 14.3031ZM62.5336 43.4411C62.0014 43.4411 61.6023 43.1085 61.5357 42.6428L52.3552 3.06045H42.2433V3.99175H43.5073C44.106 3.99175 44.5053 4.45747 44.5053 4.98968V5.1893L35.99 42.643C35.9235 43.1087 35.5243 43.4413 34.9921 43.4413H33.595V44.3726H39.9815V43.4413H39.1831C38.6509 43.4413 38.1852 42.9756 38.1852 42.3769V42.1772L40.5802 32.9303H50.5589L53.0204 42.1772V42.3769C53.0204 42.9756 52.6213 43.4413 52.0225 43.4413H51.1576V44.3726H63.7975V43.4413H62.5334L62.5336 43.4411ZM41.046 30.8678L45.5697 9.97893L50.0934 30.8678H41.046ZM89.2102 3.0603V4.39083C88.3454 3.45953 87.1479 3.0603 85.4848 3.0603H66.7913C65.1282 3.0603 63.9308 3.45939 63.0658 4.39083V3.0603H61.4692V12.3737H63.0658V9.18061C63.0658 6.91877 64.8621 5.12252 67.1239 5.12252H72.0468V42.3766C72.0468 42.9753 71.5811 43.441 70.9824 43.441H69.785V44.3723H82.4247V43.441H81.2272C80.695 43.441 80.2293 42.9753 80.2293 42.3766V5.12252H85.0857C87.3476 5.12252 89.2103 6.91877 89.2103 9.18061V12.3737H90.8069V3.0603H89.2103H89.2102ZM123.604 43.441C123.071 43.441 122.606 42.9753 122.606 42.4431V28.8719C122.606 25.9447 120.876 23.4834 118.415 22.3524C120.876 20.9553 122.606 18.2278 122.606 15.1676V11.2427C122.606 6.71901 118.947 3.06015 114.423 3.06015H94.1331V3.99145H95.3305C95.8627 3.99145 96.3284 4.45718 96.3284 4.98939V42.4431C96.3284 42.9753 95.8627 43.441 95.3305 43.441H94.1331V44.3723H106.773V43.441H105.575C104.977 43.441 104.511 42.9753 104.511 42.4431V23.3503H111.363C113.026 23.3503 114.423 24.7473 114.423 26.477V41.312C114.423 42.9751 115.754 44.3721 117.483 44.3721H124.801V43.4408H123.604V43.441ZM114.423 18.2279C114.423 19.9576 113.026 21.3546 111.363 21.3546H104.511V5.12237H111.363C113.026 5.12237 114.423 6.51939 114.423 8.18252V18.2278V18.2279ZM156.401 43.441C155.868 43.441 155.469 43.1084 155.403 42.6427L146.222 3.0603H136.11V3.9916H137.374C137.973 3.9916 138.372 4.45732 138.372 4.98954V5.18915L129.857 42.6428C129.79 43.1085 129.391 43.4411 128.859 43.4411H127.462V44.3724H133.848V43.4411H133.05C132.518 43.4411 132.052 42.9754 132.052 42.3767V42.1771L134.447 32.9301H144.426L146.887 42.1771V42.3767C146.887 42.9754 146.488 43.4411 145.889 43.4411H145.025V44.3724H157.664V43.4411H156.4L156.401 43.441ZM134.913 30.8676L139.437 9.97878L143.96 30.8676H134.913ZM182.079 3.06015V3.99145H183.011C183.543 3.99145 184.009 4.45718 184.009 5.05588V28.2066L170.97 3.06015H160.326V3.99145H161.257C161.789 3.99145 162.255 4.45718 162.255 5.05588V42.4429C162.255 42.9751 161.789 43.4408 161.257 43.4408H160.326V44.3721H166.246V43.4408H165.315C164.783 43.4408 164.317 42.9751 164.317 42.4429V7.1181L183.809 44.3721H186.071V5.05588C186.071 4.45718 186.536 3.99145 187.069 3.99145H188V3.06015H182.079Z" fill="white"/>
</g>
</svg>
