<svg width="132" height="31" viewBox="0 0 132 31" fill="none" xmlns="http://www.w3.org/2000/svg">
<g id="&#208;&#161;&#208;&#187;&#208;&#190;&#208;&#185;_x0020_1">
<path id="Vector" d="M12.4835 9.9777L18.0524 1.20667C18.238 0.881782 18.6093 0.649767 18.9805 0.649767H19.5838V0H14.9895V0.649767H16.0104C16.2424 0.649767 16.3817 0.8354 16.3817 1.02103C16.3817 1.1139 16.3817 1.16028 16.3353 1.20667L7.28587 15.5465V1.3923C7.28587 0.97465 7.61075 0.649767 7.98202 0.649767H8.81731V0H0V0.649767H0.835298C1.25295 0.649767 1.57783 0.97465 1.57783 1.3923V29.6078C1.57783 30.0255 1.25295 30.3503 0.835298 30.3503H0V31H8.81731V30.3503H7.98202C7.61075 30.3503 7.28587 30.0255 7.28587 29.6078V18.238L8.67806 16.0569L13.8293 29.8398C13.8293 29.8862 13.8757 29.9327 13.8757 29.9791C13.8757 30.1647 13.6901 30.3503 13.5044 30.3503H12.7619V31H21.5792V30.3503H20.8367C20.3726 30.3503 20.0014 30.0719 19.8621 29.6542L12.4834 9.9776L12.4835 9.9777ZM43.6227 30.3041C43.2515 30.3041 42.9731 30.072 42.9266 29.7472L36.5224 2.13493H29.4684V2.7846H30.3502C30.7679 2.7846 31.0464 3.10948 31.0464 3.48075V3.62L25.1062 29.7473C25.0598 30.0721 24.7813 30.3042 24.4101 30.3042H23.4355V30.9538H27.8906V30.3042H27.3337C26.9625 30.3042 26.6376 29.9793 26.6376 29.5616V29.4224L28.3083 22.9718H35.2694L36.9864 29.4224V29.5616C36.9864 29.9793 36.708 30.3042 36.2903 30.3042H35.687V30.9538H44.5044V30.3042H43.6226L43.6227 30.3041ZM28.6333 21.533L31.7889 6.96119L34.9446 21.533H28.6333ZM62.232 2.13483V3.063C61.6287 2.41333 60.7934 2.13483 59.6333 2.13483H46.5929C45.4327 2.13483 44.5974 2.41323 43.994 3.063V2.13483H42.8802V8.63178H43.994V6.40429C43.994 4.82646 45.2471 3.57341 46.8249 3.57341H50.259V29.5614C50.259 29.9791 49.9342 30.304 49.5165 30.304H48.6812V30.9536H57.4985V30.304H56.6632C56.292 30.304 55.9671 29.9791 55.9671 29.5614V3.57341H59.3549C60.9327 3.57341 62.2321 4.82646 62.2321 6.40429V8.63178H63.3459V2.13483H62.2321H62.232ZM86.2245 30.304C85.8533 30.304 85.5285 29.9791 85.5285 29.6078V20.1407C85.5285 18.0988 84.3219 16.3818 82.6049 15.5928C84.3219 14.6182 85.5285 12.7155 85.5285 10.5808V7.84277C85.5285 4.68711 82.9761 2.13473 79.8204 2.13473H65.6662V2.78439H66.5015C66.8727 2.78439 67.1976 3.10928 67.1976 3.48054V29.6078C67.1976 29.9791 66.8727 30.304 66.5015 30.304H65.6662V30.9536H74.4835V30.304H73.6482C73.2305 30.304 72.9057 29.9791 72.9057 29.6078V16.2889H77.6856C78.8458 16.2889 79.8204 17.2635 79.8204 18.47V28.8188C79.8204 29.979 80.7485 30.9535 81.9551 30.9535H87.0598V30.3039H86.2245V30.304ZM79.8204 12.7156C79.8204 13.9222 78.8458 14.8967 77.6856 14.8967H72.9057V3.57331H77.6856C78.8458 3.57331 79.8204 4.54786 79.8204 5.70804V12.7155V12.7156ZM109.103 30.304C108.732 30.304 108.454 30.0719 108.407 29.7471L102.003 2.13483H94.949V2.7845H95.8308C96.2484 2.7845 96.5269 3.10938 96.5269 3.48064V3.61989L90.5868 29.7472C90.5404 30.072 90.2619 30.3041 89.8906 30.3041H88.9161V30.9537H93.3712V30.3041H92.8143C92.443 30.3041 92.1181 29.9792 92.1181 29.5615V29.4223L93.7888 22.9717H100.75L102.467 29.4223V29.5615C102.467 29.9792 102.189 30.3041 101.771 30.3041H101.168V30.9537H109.985V30.3041H109.103L109.103 30.304ZM94.1138 21.5329L97.2695 6.96108L100.425 21.5329H94.1138ZM127.017 2.13473V2.78439H127.666C128.038 2.78439 128.362 3.10928 128.362 3.52693V19.6766L119.267 2.13473H111.841V2.78439H112.491C112.862 2.78439 113.187 3.10928 113.187 3.52693V29.6077C113.187 29.979 112.862 30.3039 112.491 30.3039H111.841V30.9535H115.972V30.3039H115.322C114.951 30.3039 114.626 29.979 114.626 29.6077V4.9655L128.223 30.9535H129.801V3.52693C129.801 3.10928 130.126 2.78439 130.497 2.78439H131.147V2.13473H127.017Z" fill="white"/>
</g>
</svg>
