<svg width="174" height="41" viewBox="0 0 174 41" fill="none" xmlns="http://www.w3.org/2000/svg">
<g id="&#208;&#161;&#208;&#187;&#208;&#190;&#208;&#185;_x0020_1">
<path id="Vector" d="M16.5104 13.1963L23.8757 1.59591C24.1212 1.16623 24.6123 0.859369 25.1033 0.859369H25.9012V0H19.8248V0.859369H21.1751C21.4819 0.859369 21.6661 1.10488 21.6661 1.3504C21.6661 1.47322 21.6661 1.53457 21.6047 1.59591L9.63615 20.5615V1.84143C9.63615 1.28905 10.0658 0.859369 10.5569 0.859369H11.6616V0H0V0.859369H1.10475C1.65712 0.859369 2.08681 1.28905 2.08681 1.84143V39.1587C2.08681 39.7111 1.65712 40.1408 1.10475 40.1408H0V41H11.6616V40.1408H10.5569C10.0658 40.1408 9.63615 39.7111 9.63615 39.1587V24.1212L11.4774 21.2365L18.2904 39.4656C18.2904 39.5269 18.3517 39.5884 18.3517 39.6497C18.3517 39.8952 18.1062 40.1408 17.8607 40.1408H16.8786V41H28.5402V40.1408H27.5582C26.9445 40.1408 26.4534 39.7726 26.2693 39.2201L16.5103 13.1962L16.5104 13.1963ZM57.6946 40.0796C57.2036 40.0796 56.8354 39.7727 56.7739 39.343L48.3038 2.82362H38.9744V3.68285H40.1406C40.693 3.68285 41.0613 4.11254 41.0613 4.60357V4.78774L33.205 39.3431C33.1437 39.7728 32.7753 40.0797 32.2843 40.0797H30.9954V40.9389H36.8876V40.0797H36.151C35.66 40.0797 35.2303 39.65 35.2303 39.0976V38.9135L37.44 30.3821H46.6466L48.9175 38.9135V39.0976C48.9175 39.65 48.5493 40.0797 47.9968 40.0797H47.1989V40.9389H58.8607V40.0797H57.6944L57.6946 40.0796ZM37.8698 28.4792L42.0434 9.20673L46.217 28.4792H37.8698ZM82.3069 2.82349V4.05106C81.509 3.19183 80.4042 2.82349 78.8698 2.82349H61.6228C60.0884 2.82349 58.9836 3.19169 58.1856 4.05106V2.82349H56.7125V11.4162H58.1856V8.47019C58.1856 6.38338 59.8429 4.72612 61.9297 4.72612H66.4716V39.0974C66.4716 39.6497 66.0419 40.0794 65.4896 40.0794H64.3848V40.9387H76.0464V40.0794H74.9417C74.4507 40.0794 74.021 39.6497 74.021 39.0974V4.72612H78.5016C80.5884 4.72612 82.307 6.38338 82.307 8.47019V11.4162H83.7801V2.82349H82.307H82.3069ZM114.039 40.0794C113.548 40.0794 113.118 39.6497 113.118 39.1587V26.6377C113.118 23.9371 111.523 21.6662 109.252 20.6227C111.523 19.3338 113.118 16.8173 113.118 13.9939V10.3727C113.118 6.19908 109.743 2.82335 105.569 2.82335H86.8488V3.68258H87.9536C88.4446 3.68258 88.8743 4.11227 88.8743 4.6033V39.1587C88.8743 39.6497 88.4446 40.0794 87.9536 40.0794H86.8488V40.9387H98.5104V40.0794H97.4057C96.8533 40.0794 96.4236 39.6497 96.4236 39.1587V21.5434H102.746C104.28 21.5434 105.569 22.8323 105.569 24.4281V38.1152C105.569 39.6496 106.796 40.9385 108.392 40.9385H115.144V40.0793H114.039V40.0794ZM105.569 16.8174C105.569 18.4132 104.28 19.7021 102.746 19.7021H96.4236V4.72599H102.746C104.28 4.72599 105.569 6.01491 105.569 7.54934V16.8173V16.8174ZM144.298 40.0794C143.807 40.0794 143.439 39.7726 143.377 39.3429L134.907 2.82349H125.578V3.68272H126.744C127.296 3.68272 127.665 4.1124 127.665 4.60343V4.7876L119.808 39.343C119.747 39.7727 119.379 40.0796 118.888 40.0796H117.599V40.9388H123.491V40.0796H122.754C122.263 40.0796 121.834 39.6499 121.834 39.0975V38.9133L124.043 30.3819H133.25L135.521 38.9133V39.0975C135.521 39.6499 135.153 40.0796 134.6 40.0796H133.802V40.9388H145.464V40.0796H144.298L144.298 40.0794ZM124.473 28.479L128.647 9.2066L132.82 28.479H124.473ZM167.99 2.82335V3.68258H168.849C169.34 3.68258 169.77 4.11227 169.77 4.66464V26.0239L157.74 2.82335H147.919V3.68258H148.778C149.27 3.68258 149.699 4.11227 149.699 4.66464V39.1586C149.699 39.6496 149.27 40.0793 148.778 40.0793H147.919V40.9385H153.382V40.0793H152.522C152.031 40.0793 151.602 39.6496 151.602 39.1586V6.56728L169.585 40.9385H171.672V4.66464C171.672 4.11227 172.102 3.68258 172.593 3.68258H173.452V2.82335H167.99Z" fill="#0D0F10"/>
</g>
</svg>
