<svg width="23" height="23" viewBox="0 0 23 23" fill="none" xmlns="http://www.w3.org/2000/svg">
<g id="out_log_icon_255959 1">
<g id="111 log-out-04">
<path id="Vector" d="M12.9375 19.4062H10.695C10.1643 19.4237 9.64831 19.23 9.26026 18.8675C8.8722 18.5051 8.64375 18.0035 8.625 17.4728V13.6562H10.0625V17.4728C10.084 17.6209 10.1617 17.7551 10.2794 17.8474C10.3972 17.9398 10.546 17.9832 10.695 17.9688H12.9375V19.4062Z" fill="#06364B" fill-opacity="0.4"/>
<path id="Vector_2" d="M20.8438 15.8116H19.4062V4.08882C19.3848 3.94206 19.3082 3.80901 19.1919 3.71684C19.0757 3.62467 18.9287 3.58034 18.7809 3.59288H10.695C10.546 3.5784 10.3972 3.62184 10.2794 3.71419C10.1617 3.80654 10.084 3.9407 10.0625 4.08882V7.90538H8.625V4.08882C8.64375 3.55815 8.8722 3.05658 9.26026 2.69412C9.64831 2.33167 10.1643 2.13792 10.695 2.15538H18.7809C19.3104 2.13986 19.8245 2.33447 20.211 2.69672C20.5975 3.05898 20.825 3.55943 20.8438 4.08882V15.8116Z" fill="#06364B" fill-opacity="0.4"/>
<path id="Vector_3" d="M6.07958 14.8839L2.99614 11.7933C2.7284 11.5239 2.57812 11.1596 2.57812 10.7798C2.57812 10.4001 2.7284 10.0357 2.99614 9.76641L6.07958 6.67578L7.1002 7.69641L4.01676 10.7798L7.1002 13.8633L6.07958 14.8839Z" fill="#06364B" fill-opacity="0.4"/>
<path id="Vector_4" d="M10.1847 10.0625H3.59375V11.5H10.1847V10.0625Z" fill="#06364B" fill-opacity="0.4"/>
<path id="Vector_5" d="M14.0488 20.8433C13.8047 20.8494 13.5618 20.8054 13.3353 20.714C13.1088 20.6227 12.9033 20.486 12.7317 20.3123C12.56 20.1385 12.4256 19.9315 12.337 19.7039C12.2483 19.4764 12.2071 19.233 12.216 18.989V6.05145C12.2419 5.48066 12.4509 4.93338 12.812 4.49064C13.1732 4.04791 13.6674 3.73327 14.2213 3.59333L18.5338 2.54395C18.812 2.47256 19.1027 2.46523 19.384 2.5225C19.6654 2.57977 19.9301 2.70015 20.1582 2.87458C20.3728 3.04745 20.5456 3.26647 20.6638 3.51535C20.782 3.76423 20.8426 4.03655 20.841 4.31208V17.2496C20.8203 17.8219 20.6164 18.3724 20.2592 18.8201C19.9021 19.2678 19.4107 19.589 18.8573 19.7365L14.5448 20.7786C14.3827 20.8202 14.2162 20.8419 14.0488 20.8433ZM19.0298 3.90239H18.8573L14.5448 4.94458C14.2994 5.01311 14.0815 5.15665 13.9217 5.35512C13.7619 5.55359 13.6681 5.79706 13.6535 6.05145V18.989C13.6488 19.0524 13.6579 19.1161 13.6802 19.1757C13.7026 19.2353 13.7376 19.2893 13.7829 19.334C13.845 19.371 13.9142 19.3946 13.986 19.4033C14.0578 19.412 14.1306 19.4055 14.1998 19.3843L18.5123 18.3349C18.7539 18.2667 18.9688 18.1261 19.1282 17.9321C19.2875 17.738 19.3836 17.4999 19.4035 17.2496V4.31208C19.4082 4.24971 19.399 4.18709 19.3767 4.12868C19.3543 4.07028 19.3193 4.01755 19.2742 3.97426C19.2029 3.924 19.1169 3.89873 19.0298 3.90239Z" fill="#06364B" fill-opacity="0.4"/>
</g>
</g>
</svg>
