<svg width="17" height="17" viewBox="0 0 17 17" fill="none" xmlns="http://www.w3.org/2000/svg">
<g id="Group">
<path id="Vector" d="M6.19536 16.8448C6.19536 16.7685 6.19536 16.6953 6.19536 16.6222C6.19536 13.1966 6.19536 9.77423 6.19536 6.34867C6.19536 6.25325 6.189 6.17691 6.32894 6.17691C7.34039 6.18328 8.35502 6.1801 9.36647 6.1801C9.39192 6.1801 9.41736 6.18646 9.45871 6.19282C9.45871 6.63811 9.45871 7.07704 9.45871 7.51915C9.47143 7.52233 9.48097 7.52869 9.4937 7.53187C9.62092 7.36648 9.74179 7.19472 9.87537 7.03251C10.2634 6.55541 10.7501 6.20554 11.3226 5.99562C11.6343 5.88111 11.9746 5.81114 12.3022 5.79524C12.7539 5.77615 13.2151 5.78251 13.6604 5.85885C14.3919 5.9829 15.0376 6.30732 15.5719 6.83849C16.0777 7.33785 16.4116 7.939 16.5929 8.61648C16.6883 8.97589 16.7488 9.34485 16.806 9.71062C16.8442 9.96507 16.8633 10.2259 16.8633 10.4803C16.8665 12.5478 16.8665 14.6152 16.8665 16.6826C16.8665 16.7335 16.8633 16.7844 16.8601 16.8512C16.7997 16.8512 16.7488 16.8512 16.6979 16.8512C15.7214 16.8512 14.7481 16.848 13.7717 16.8544C13.6095 16.8544 13.5808 16.8003 13.5808 16.654C13.584 14.752 13.5904 12.8467 13.5777 10.9447C13.5745 10.6107 13.5427 10.2641 13.4568 9.94281C13.3009 9.37983 12.9447 8.97271 12.3785 8.76597C11.9015 8.59103 11.418 8.55922 10.9282 8.68327C10.3875 8.82004 10.0153 9.17945 9.73542 9.65337C9.51914 10.0191 9.47779 10.4231 9.47461 10.827C9.46189 12.7577 9.46825 14.6852 9.46825 16.6158C9.46825 16.689 9.46825 16.7621 9.46825 16.8416C8.37092 16.8448 7.29268 16.8448 6.19536 16.8448Z" fill="#06364B"/>
<path id="Vector_2" d="M4.14527 11.561C4.14527 13.2563 4.14209 14.9515 4.14845 16.6468C4.14845 16.7995 4.11664 16.8568 3.94807 16.8536C2.97797 16.844 2.00787 16.844 1.03777 16.8536C0.878737 16.8536 0.84375 16.7995 0.84375 16.6532C0.846931 13.2467 0.846931 9.83705 0.84375 6.43057C0.84375 6.2938 0.881918 6.24609 1.02187 6.24609C2.00151 6.25246 2.98115 6.25246 3.96397 6.24609C4.11664 6.24609 4.14527 6.30335 4.14527 6.44011C4.14527 8.14813 4.14527 9.85614 4.14527 11.561Z" fill="#06364B"/>
<path id="Vector_3" d="M2.45947 0.817385C3.50591 0.79194 4.1325 1.55212 4.13568 2.48405C4.13886 3.43824 3.47092 4.15071 2.42131 4.14753C1.44484 4.14753 0.754643 3.44779 0.757823 2.4586C0.761004 1.53303 1.43212 0.785579 2.45947 0.817385Z" fill="#06364B"/>
</g>
</svg>
