<svg width="21" height="21" viewBox="0 0 21 21" fill="none" xmlns="http://www.w3.org/2000/svg">
<g id="pin_gps_location_find_map_search_icon-icons.com_59982 1">
<g id="Glyph_copy_2">
<path id="Vector" d="M13.8249 7.60116C13.8249 5.77481 12.3326 4.28906 10.4984 4.28906C8.66419 4.28906 7.17188 5.77481 7.17188 7.60116C7.17188 9.4275 8.66419 10.9132 10.4984 10.9132C12.3326 10.9132 13.8249 9.4275 13.8249 7.60116Z" fill="#06364B" fill-opacity="0.8"/>
<path id="Vector_2" d="M10.4964 20.9993L11.8447 19.2357C13.252 17.3726 17.8435 11.0247 17.8435 7.55408C17.8438 3.03678 14.892 0.00195312 10.4981 0.00195312C6.10416 0.00195312 3.15234 3.03678 3.15234 7.55441C3.15234 11.2917 8.54409 18.437 9.15736 19.2373L10.4964 20.9993ZM5.85905 7.60067C5.85905 5.05081 7.94002 2.97608 10.4981 2.97608C13.0561 2.97608 15.1371 5.05081 15.1371 7.60067C15.1371 10.1505 13.0561 12.2253 10.4981 12.2253C7.94002 12.2253 5.85905 10.1509 5.85905 7.60067Z" fill="#06364B" fill-opacity="0.8"/>
</g>
</g>
</svg>
