<svg width="49" height="38" viewBox="0 0 49 38" fill="none" xmlns="http://www.w3.org/2000/svg">
<g id="20210817144356!Mastercard-logo 1" clip-path="url(#clip0_6_482)">
<g id="layer1">
<g id="g13">
<g id="g15">
<path id="XMLID_1775_" d="M8.91566 37.9159V35.3938C8.91566 34.427 8.32682 33.7965 7.31738 33.7965C6.81266 33.7965 6.26588 33.9646 5.88734 34.5111C5.59292 34.0487 5.17231 33.7965 4.54141 33.7965C4.12081 33.7965 3.70021 33.9226 3.36373 34.385V33.8805H2.48047V37.9159H3.36373V35.6881C3.36373 34.9735 3.74227 34.6372 4.33111 34.6372C4.91995 34.6372 5.21437 35.0155 5.21437 35.6881V37.9159H6.09764V35.6881C6.09764 34.9735 6.51823 34.6372 7.06502 34.6372C7.65386 34.6372 7.94828 35.0155 7.94828 35.6881V37.9159H8.91566ZM21.9963 33.8805H20.5663V32.6615H19.683V33.8805H18.8839V34.6792H19.683V36.5288C19.683 37.4535 20.0616 38 21.071 38C21.4496 38 21.8702 37.8739 22.1646 37.7058L21.9122 36.9491C21.6599 37.1173 21.3654 37.1593 21.1551 37.1593C20.7345 37.1593 20.5663 36.9071 20.5663 36.4867V34.6792H21.9963V33.8805ZM29.483 33.7965C28.9783 33.7965 28.6418 34.0487 28.4315 34.385V33.8805H27.5483V37.9159H28.4315V35.646C28.4315 34.9735 28.726 34.5951 29.2727 34.5951C29.441 34.5951 29.6513 34.6372 29.8195 34.6792L30.0719 33.8385C29.9037 33.7965 29.6513 33.7965 29.483 33.7965ZM18.1689 34.2168C17.7483 33.9226 17.1594 33.7965 16.5285 33.7965C15.5191 33.7965 14.8461 34.3009 14.8461 35.0996C14.8461 35.7721 15.3508 36.1505 16.2341 36.2766L16.6547 36.3186C17.1174 36.4027 17.3697 36.5288 17.3697 36.7389C17.3697 37.0332 17.0333 37.2434 16.4444 37.2434C15.8556 37.2434 15.3929 37.0332 15.0985 36.823L14.6779 37.4956C15.1406 37.8319 15.7715 38 16.4024 38C17.58 38 18.253 37.4536 18.253 36.6969C18.253 35.9823 17.7062 35.604 16.865 35.4779L16.4444 35.4359C16.0659 35.3938 15.7715 35.3097 15.7715 35.0575C15.7715 34.7633 16.0659 34.5951 16.5285 34.5951C17.0333 34.5951 17.538 34.8053 17.7903 34.9314L18.1689 34.2168ZM41.6384 33.7965C41.1337 33.7965 40.7972 34.0487 40.5869 34.385V33.8805H39.7036V37.9159H40.5869V35.646C40.5869 34.9735 40.8813 34.5951 41.4281 34.5951C41.5964 34.5951 41.8066 34.6372 41.9749 34.6792L42.2273 33.8385C42.059 33.7965 41.8067 33.7965 41.6384 33.7965ZM30.3663 35.8982C30.3663 37.1173 31.2075 38 32.5114 38C33.1002 38 33.5208 37.8739 33.9414 37.5376L33.5208 36.823C33.1843 37.0752 32.8478 37.2013 32.4693 37.2013C31.7543 37.2013 31.2496 36.6969 31.2496 35.8982C31.2496 35.1416 31.7543 34.6372 32.4693 34.5951C32.8478 34.5951 33.1843 34.7213 33.5208 34.9735L33.9414 34.2589C33.5208 33.9226 33.1002 33.7965 32.5114 33.7965C31.2075 33.7965 30.3663 34.6792 30.3663 35.8982ZM38.526 35.8982V33.8805H37.6427V34.385C37.3483 34.0067 36.9277 33.7965 36.3809 33.7965C35.2453 33.7965 34.362 34.6792 34.362 35.8982C34.362 37.1173 35.2453 38 36.3809 38C36.9697 38 37.3903 37.7898 37.6427 37.4115V37.9159H38.526V35.8982ZM35.2873 35.8982C35.2873 35.1836 35.75 34.5951 36.5071 34.5951C37.2221 34.5951 37.7268 35.1416 37.7268 35.8982C37.7268 36.6128 37.2221 37.2013 36.5071 37.2013C35.75 37.1593 35.2873 36.6128 35.2873 35.8982ZM24.7303 33.7965C23.5526 33.7965 22.7114 34.6372 22.7114 35.8982C22.7114 37.1593 23.5526 38 24.7723 38C25.3612 38 25.95 37.8319 26.4127 37.4536L25.9921 36.823C25.6556 37.0752 25.235 37.2434 24.8144 37.2434C24.2676 37.2434 23.7208 36.9912 23.5946 36.2766H26.5809C26.5809 36.1505 26.5809 36.0664 26.5809 35.9403C26.623 34.6372 25.8659 33.7965 24.7303 33.7965ZM24.7303 34.5531C25.277 34.5531 25.6556 34.8894 25.7397 35.5199H23.6367C23.7208 34.9735 24.0994 34.5531 24.7303 34.5531ZM46.6436 35.8982V32.2832H45.7603V34.385C45.4659 34.0067 45.0453 33.7965 44.4985 33.7965C43.3629 33.7965 42.4796 34.6792 42.4796 35.8982C42.4796 37.1173 43.3629 38 44.4985 38C45.0873 38 45.5079 37.7898 45.7603 37.4115V37.9159H46.6436V35.8982ZM43.4049 35.8982C43.4049 35.1836 43.8676 34.5951 44.6247 34.5951C45.3397 34.5951 45.8444 35.1416 45.8444 35.8982C45.8444 36.6128 45.3397 37.2013 44.6247 37.2013C43.8676 37.1593 43.4049 36.6128 43.4049 35.8982ZM13.8788 35.8982V33.8805H12.9955V34.385C12.7011 34.0067 12.2805 33.7965 11.7337 33.7965C10.5981 33.7965 9.7148 34.6792 9.7148 35.8982C9.7148 37.1173 10.5981 38 11.7337 38C12.3225 38 12.7431 37.7898 12.9955 37.4115V37.9159H13.8788V35.8982ZM10.5981 35.8982C10.5981 35.1836 11.0607 34.5951 11.8178 34.5951C12.5328 34.5951 13.0376 35.1416 13.0376 35.8982C13.0376 36.6128 12.5328 37.2013 11.8178 37.2013C11.0607 37.1593 10.5981 36.6128 10.5981 35.8982Z" fill="black"/>
</g>
<g id="XMLID_328_">
<path id="rect19" d="M31.1239 3.23633H17.875V27.0284H31.1239V3.23633Z" fill="#FF5F00"/>
<path id="XMLID_330_" d="M18.7167 15.1327C18.7167 10.2987 20.988 6.01107 24.479 3.23673C21.9133 1.21903 18.6747 0 15.1416 0C6.77168 0 0 6.7677 0 15.1327C0 23.4978 6.77168 30.2655 15.1416 30.2655C18.6747 30.2655 21.9133 29.0465 24.479 27.0288C20.988 24.2965 18.7167 19.9668 18.7167 15.1327Z" fill="#EB001B"/>
<path id="path22" d="M48.9985 15.1327C48.9985 23.4978 42.2268 30.2655 33.8569 30.2655C30.3238 30.2655 27.0852 29.0465 24.5195 27.0288C28.0526 24.2544 30.2818 19.9668 30.2818 15.1327C30.2818 10.2987 28.0105 6.01107 24.5195 3.23673C27.0852 1.21903 30.3238 0 33.8569 0C42.2268 0 48.9985 6.80974 48.9985 15.1327Z" fill="#F79E1B"/>
</g>
</g>
</g>
</g>
<defs>
<clipPath id="clip0_6_482">
<rect width="49" height="38" fill="white"/>
</clipPath>
</defs>
</svg>
