<svg width="19" height="19" viewBox="0 0 19 19" fill="none" xmlns="http://www.w3.org/2000/svg">
<g id="Group">
<g id="_x34__4_">
<g id="Group_2">
<path id="Vector" d="M18.8196 17.9662L13.9141 13.1391C15.1987 11.7435 15.988 9.89769 15.988 7.8666C15.9874 3.52172 12.4086 0 7.99369 0C3.57875 0 0 3.52172 0 7.8666C0 12.2115 3.57875 15.7332 7.99369 15.7332C9.90126 15.7332 11.6508 15.0734 13.0251 13.9765L17.9496 18.8226C18.1895 19.059 18.5791 19.059 18.819 18.8226C19.0595 18.5862 19.0595 18.2026 18.8196 17.9662ZM7.99369 14.5229C4.25817 14.5229 1.22994 11.5428 1.22994 7.8666C1.22994 4.19043 4.25817 1.21032 7.99369 1.21032C11.7293 1.21032 14.7574 4.19043 14.7574 7.8666C14.7574 11.5428 11.7293 14.5229 7.99369 14.5229Z" fill="white"/>
</g>
</g>
</g>
</svg>
