<svg width="21" height="21" viewBox="0 0 21 21" fill="none" xmlns="http://www.w3.org/2000/svg">
<g id="3643770-favorite-heart-like-likes-love-loved_113432 17">
<g id="Group 13235">
<path id="Vector" d="M12.4821 16.8139H6.48206C5.25984 16.8139 4.29688 15.8139 4.29688 14.6288V7.92506C4.29688 7.70284 4.44502 7.55469 4.66725 7.55469C4.88947 7.55469 5.03762 7.70284 5.03762 7.92506V14.6288C5.03762 15.4436 5.70428 16.0732 6.48206 16.0732H12.4821C13.2969 16.0732 13.9265 15.4065 13.9265 14.6288V7.92506C13.9265 7.70284 14.0747 7.55469 14.2969 7.55469C14.5191 7.55469 14.6672 7.70284 14.6672 7.92506V14.6288C14.6672 15.8139 13.6672 16.8139 12.4821 16.8139Z" fill="black"/>
<path id="Vector_2" d="M14.4444 3.81481H11.6296C11.4444 2.77778 10.5556 2 9.48148 2C8.40741 2 7.51852 2.77778 7.33333 3.81481H4.51852C3.66667 3.81481 3 4.48148 3 5.33333C3 6.18519 3.66667 6.81482 4.51852 6.81482H14.4815C15.3333 6.81482 16 6.14815 16 5.2963C16 4.44444 15.2963 3.81481 14.4444 3.81481ZM9.48148 2.74074C10.1481 2.74074 10.7037 3.18519 10.8519 3.81481H8.07407C8.25926 3.18519 8.81482 2.74074 9.48148 2.74074ZM14.4444 6.07407H4.51852C4.11111 6.07407 3.74074 5.74074 3.74074 5.2963C3.74074 4.88889 4.07407 4.51852 4.51852 4.51852H14.4815C14.8889 4.51852 15.2593 4.85185 15.2593 5.2963C15.2222 5.74074 14.8889 6.07407 14.4444 6.07407Z" fill="black"/>
<path id="Vector_3" d="M6.88795 15.0001C6.66573 15.0001 6.51758 14.852 6.51758 14.6298V8.44459C6.51758 8.22237 6.66573 8.07422 6.88795 8.07422C7.11017 8.07422 7.25832 8.22237 7.25832 8.44459V14.6298C7.25832 14.815 7.07313 15.0001 6.88795 15.0001Z" fill="black"/>
<path id="Vector_4" d="M12.0754 15.0001C11.8532 15.0001 11.7051 14.852 11.7051 14.6298V8.44459C11.7051 8.22237 11.8532 8.07422 12.0754 8.07422C12.2977 8.07422 12.4458 8.22237 12.4458 8.44459V14.6298C12.4458 14.815 12.2606 15.0001 12.0754 15.0001Z" fill="black"/>
<path id="Vector_5" d="M9.4817 15.0001C9.25948 15.0001 9.11133 14.852 9.11133 14.6298V8.44459C9.11133 8.22237 9.25948 8.07422 9.4817 8.07422C9.70392 8.07422 9.85207 8.22237 9.85207 8.44459V14.6298C9.85207 14.815 9.66688 15.0001 9.4817 15.0001Z" fill="black"/>
</g>
</g>
</svg>
