<svg width="24" height="24" viewBox="0 0 24 24" fill="none" xmlns="http://www.w3.org/2000/svg">
<path d="M12.0016 20.3996C13.327 20.3996 14.4016 19.3251 14.4016 17.9996C14.4016 16.6741 13.327 15.5996 12.0016 15.5996C10.6761 15.5996 9.60156 16.6741 9.60156 17.9996C9.60156 19.3251 10.6761 20.3996 12.0016 20.3996Z" fill="white"/>
<path d="M12.0016 14.3996C13.327 14.3996 14.4016 13.3251 14.4016 11.9996C14.4016 10.6741 13.327 9.59961 12.0016 9.59961C10.6761 9.59961 9.60156 10.6741 9.60156 11.9996C9.60156 13.3251 10.6761 14.3996 12.0016 14.3996Z" fill="white"/>
<path d="M12.0016 8.39961C13.327 8.39961 14.4016 7.32509 14.4016 5.99961C14.4016 4.67413 13.327 3.59961 12.0016 3.59961C10.6761 3.59961 9.60156 4.67413 9.60156 5.99961C9.60156 7.32509 10.6761 8.39961 12.0016 8.39961Z" fill="white"/>
</svg>
