<svg width="85" height="28" viewBox="0 0 85 28" fill="none" xmlns="http://www.w3.org/2000/svg">
<g id="20170118154620!Visa_Inc._logo 1" clip-path="url(#clip0_6_478)">
<g id="Group">
<path id="Vector" d="M55.5168 0.296875C48.7563 0.296875 44.0075 3.90093 43.9656 9.05432C43.9228 12.8721 47.3617 15.0008 49.9481 16.2697C52.6166 17.5668 53.5079 18.4004 53.4991 19.5609C53.4726 21.3396 51.3639 22.15 49.4044 22.15C46.6726 22.15 45.2162 21.75 42.9775 20.7628L42.0899 20.3397L41.1338 26.2793C42.7321 27.0184 45.6837 27.6588 48.7522 27.6923C55.9262 27.6923 60.594 24.1296 60.6494 18.6287C60.6777 15.6007 58.8523 13.309 54.9056 11.4169C52.5231 10.1867 51.0499 9.37102 51.0719 8.1245C51.0737 7.0231 52.3081 5.84268 54.9876 5.84268C57.2255 5.80491 58.8349 6.32 60.1021 6.86254L60.7116 7.16748L61.6413 1.41382C60.291 0.878921 58.1599 0.297026 55.5165 0.297026L55.5168 0.296875ZM34.294 0.759774L30.018 27.2999H36.8497L41.128 0.759471H34.2949L34.294 0.759774ZM24.2854 0.785525L17.5957 18.8735L16.8825 15.1981C15.2166 10.6912 11.6101 5.9637 7.41016 4.04773L13.5296 27.2746L20.7636 27.2711L31.5212 0.785725L24.2854 0.785525ZM73.8898 0.787242C72.2529 0.787242 71.0263 1.2551 70.3038 2.99008L60.159 27.3087H67.3367C67.3367 27.3087 68.5102 24.0353 68.7756 23.3186C69.5589 23.3186 76.5302 23.3337 77.5249 23.3337C77.7363 24.2592 78.357 27.3083 78.357 27.3083H84.7034L79.1696 0.787257L73.8898 0.787242ZM74.3726 7.94245L74.8281 10.2304C74.8281 10.2304 76.1413 16.5629 76.4153 17.8892H70.742C71.3096 16.3663 73.4644 10.4707 73.4644 10.4707C73.4225 10.5428 74.0251 8.93571 74.3726 7.94245Z" fill="#0023A0"/>
<path id="Vector_2" d="M11.3912 0.771545H0.368896L0.304688 1.22825C8.87432 3.42598 14.528 8.82293 16.8821 15.205L14.4867 3.007C14.075 1.32947 12.8757 0.830786 11.3912 0.771545Z" fill="#FFAB00"/>
</g>
</g>
<defs>
<clipPath id="clip0_6_478">
<rect width="85" height="28" fill="white"/>
</clipPath>
</defs>
</svg>
